<svg width="36" height="36" viewBox="0 0 36 36" fill="none" xmlns="http://www.w3.org/2000/svg">
<circle cx="18.5" cy="18.5" r="17.5" fill="#D5D2D2"/>
<path d="M26.25 28.32H9.75C7.26488 28.32 6 26.0176 6 23.1775V18.035H30V23.1775C30 26.0176 28.7351 28.32 26.25 28.32Z" fill="#25333A"/>
<path d="M6 12.8925C6 10.0524 7.26488 7.75 9.75 7.75H26.25C28.7351 7.75 30 10.0524 30 12.8925V18.035H6V12.8925Z" fill="#CB0000"/>
<path d="M18.4425 14.3137L17.0823 14.3184L16.6597 12.6027L16.242 14.3184L14.8822 14.3137L15.9836 15.3562L15.5565 17.0603L16.6627 16.0028L17.7693 17.0603L17.34 15.3562L18.4425 14.3137Z" fill="#F8D516"/>
<path fill-rule="evenodd" clip-rule="evenodd" d="M22.0301 17.2954C22.0219 17.4749 22.0102 17.6554 22.0061 17.8358C22.0054 17.9205 21.987 17.9499 21.9154 17.9396C21.8104 17.9228 21.6697 17.8452 21.6041 17.9298C21.5426 18.0084 21.5647 18.1855 21.5426 18.3183C21.5062 18.5385 21.4687 18.7596 21.4215 18.9751C21.4005 19.0691 21.4196 19.0972 21.4882 19.1163C21.5707 19.1406 21.6491 19.178 21.7305 19.2066C21.7811 19.2229 21.7901 19.2496 21.7732 19.3136C21.6783 19.6753 21.5613 20.0274 21.4234 20.3669C21.4001 20.4225 21.384 20.437 21.3349 20.4043C21.2332 20.3384 21.1237 20.1906 21.0307 20.2327C20.9482 20.2683 20.9096 20.4557 20.8515 20.5745C20.7601 20.7635 20.6574 20.9437 20.5444 21.1135C20.4937 21.1878 20.5024 21.2266 20.5605 21.2795C20.6227 21.3337 20.6764 21.4029 20.7397 21.4585C20.7937 21.5062 20.808 21.5403 20.7559 21.6072C20.6516 21.7404 20.5537 21.8811 20.4536 22.0176C20.4176 22.0663 20.3869 22.0943 20.3314 22.0452C19.9796 21.7367 19.6245 21.4319 19.263 21.1191C19.4584 20.8989 19.6417 20.6754 19.8015 20.4235C20.3681 19.5273 20.6651 18.51 20.6816 17.3698C20.6816 17.3436 20.6782 17.3188 20.6764 17.2945C20.6884 16.2463 20.4461 15.2917 19.9661 14.4404C19.2941 13.245 18.3709 12.5409 17.2084 12.3334C17.1142 12.3165 17.0809 12.2819 17.094 12.1557C17.127 11.8579 17.1499 11.5583 17.1697 11.2577C17.1757 11.1599 17.2151 11.1599 17.274 11.1707C17.5181 11.2081 17.7589 11.2651 17.9947 11.3535C18.0877 11.3876 18.12 11.3521 18.1342 11.2497C18.1348 11.2448 18.1359 11.2401 18.1376 11.2357C18.222 10.8939 18.222 10.893 18.489 11.0108C18.697 11.105 18.9003 11.2145 19.098 11.3385C19.1629 11.3778 19.1914 11.4101 19.1479 11.5064C19.098 11.6167 18.9911 11.7382 19.0264 11.8462C19.0564 11.9397 19.1872 11.9827 19.2716 12.0482C19.4317 12.173 19.5877 12.3086 19.734 12.4582C19.7861 12.5115 19.8214 12.5157 19.8566 12.4409C19.8626 12.4283 19.872 12.4175 19.8795 12.4063C19.9402 12.3189 19.9957 12.1697 20.0632 12.1618C20.1532 12.1501 20.2204 12.2978 20.2942 12.3792C20.4574 12.5596 20.6025 12.7607 20.748 12.9636C20.7986 13.0318 20.796 13.0711 20.7371 13.1291C20.6572 13.2085 20.523 13.2726 20.5189 13.3871C20.5159 13.4858 20.6227 13.5895 20.6809 13.691C20.7911 13.8827 20.8965 14.0795 20.985 14.2875C21.0172 14.3623 21.0472 14.3852 21.1035 14.3333C21.1159 14.3217 21.132 14.3146 21.1451 14.3048C21.3986 14.1365 21.3986 14.1365 21.5201 14.468C21.6135 14.719 21.6937 14.9747 21.7642 15.2375C21.786 15.3198 21.786 15.3614 21.7065 15.3866C21.606 15.4198 21.4597 15.4198 21.4237 15.5199C21.3907 15.6129 21.4579 15.7639 21.4804 15.8892C21.5209 16.1103 21.5572 16.3305 21.5722 16.5563C21.5786 16.6465 21.606 16.6933 21.6859 16.676C21.7534 16.6615 21.8224 16.6615 21.8895 16.6475C21.9697 16.632 22.0057 16.6573 22.0069 16.7699C22.0072 16.9448 22.0207 17.1192 22.029 17.2954M15.2662 17.3132C15.6754 17.9308 16.1569 18.4567 16.6466 18.9705C17.967 20.3533 19.377 21.5861 20.7791 22.8362C20.8759 22.9227 20.8676 23.0321 20.7607 23.1083C20.7139 23.141 20.694 23.0882 20.6689 23.0662C19.986 22.4309 19.284 21.8269 18.5876 21.2103C17.7379 20.4576 16.9009 19.6862 16.1344 18.8008C16.1047 18.7685 16.0699 18.697 16.0249 18.7517C15.9705 18.8171 16.0339 18.8569 16.0657 18.8933C16.6935 19.6245 17.3734 20.2739 18.0679 20.9017C18.8985 21.6535 19.7475 22.3701 20.5702 23.134C20.664 23.22 20.6595 23.2691 20.5882 23.3664C20.4172 23.6006 20.421 23.6057 20.2136 23.4328C18.7815 22.2411 17.289 21.1719 15.7931 20.1135C15.2801 19.7498 14.8706 19.2594 14.6741 18.5408C14.5624 18.1369 14.5616 17.7251 14.6239 17.308C14.6778 17.0098 14.7623 16.7214 14.8755 16.4502C14.9524 16.798 15.1009 17.0626 15.2677 17.3132M16.6575 23.9783C16.5087 23.968 16.3601 23.9584 16.2116 23.9493C16.1565 23.9461 16.1299 23.925 16.1441 23.8484C16.155 23.7951 16.1535 23.739 16.1561 23.6829C16.1711 23.43 16.1711 23.43 15.9724 23.3991C15.7569 23.3667 15.5441 23.311 15.3364 23.2327C15.2415 23.1957 15.2047 23.2247 15.1897 23.3374C15.1875 23.3617 15.1792 23.3851 15.1729 23.4089C15.1046 23.6889 15.1027 23.6927 14.8867 23.5959C14.6524 23.4908 14.4236 23.3676 14.2016 23.2271C14.1495 23.1948 14.1412 23.1705 14.169 23.1027C14.2177 22.9802 14.3362 22.846 14.3006 22.7367C14.2665 22.6333 14.1199 22.5903 14.0276 22.5118C13.8802 22.3879 13.7396 22.2537 13.5934 22.1326C13.5236 22.0751 13.5401 22.0349 13.5851 21.97C13.7441 21.7357 13.9009 21.5025 14.0516 21.2598C14.1019 21.1799 14.133 21.1831 14.193 21.2416C14.7825 21.8166 15.4526 22.1565 16.1951 22.2701C16.7541 22.3545 17.3027 22.2908 17.841 22.0789C17.9385 22.0405 18.0071 22.0714 18.0971 22.1177C18.4061 22.278 18.5816 22.5492 18.6067 22.9685C18.612 23.0373 18.6341 23.105 18.6476 23.1724C18.7091 23.4688 18.7084 23.4688 18.4736 23.5791C18.222 23.6969 18.2149 23.7002 18.1485 23.3809C18.1174 23.2285 18.0765 23.192 17.9542 23.2411C17.7158 23.3319 17.4705 23.3916 17.2222 23.4192C17.1529 23.4281 17.1439 23.4608 17.1536 23.5333C17.1649 23.617 17.1607 23.7048 17.1757 23.7871C17.1994 23.9096 17.169 23.9606 17.0674 23.9564C16.9312 23.9526 16.794 23.9554 16.6575 23.9554V23.9783ZM22.467 24.7156C22.3301 24.4388 22.1524 24.2069 21.9566 23.997C21.654 23.6735 21.3465 23.3584 21.0439 23.0349C20.9936 22.9816 20.9704 22.99 20.9306 23.0485C20.8061 23.2383 20.6745 23.4229 20.5477 23.6109C20.4356 23.7764 20.4409 23.7997 20.6074 23.8395C20.8689 23.9027 21.1132 24.0477 21.3176 24.2607C21.5115 24.4594 21.6589 24.6992 21.7901 24.9591C21.8647 25.1083 21.9334 25.2635 22.0399 25.3813C22.14 25.4907 22.2551 25.572 22.3916 25.494C22.5244 25.4192 22.5641 25.2682 22.5641 25.0503C22.566 24.9573 22.5251 24.832 22.467 24.7156ZM21.1571 23.5702C21.1159 23.5609 21.0889 23.5328 21.0911 23.4809C21.0909 23.4696 21.0926 23.4584 21.0961 23.448C21.0997 23.4376 21.1049 23.4282 21.1115 23.4205C21.1181 23.4128 21.126 23.4069 21.1345 23.4032C21.1431 23.3995 21.1522 23.3981 21.1612 23.3991C21.2006 23.4014 21.2287 23.4351 21.2272 23.487C21.2254 23.5375 21.1972 23.566 21.1571 23.5702ZM21.6611 24.119C21.6169 24.1125 21.5974 24.077 21.6022 24.026C21.6082 23.9807 21.6326 23.9554 21.6705 23.9578C21.7136 23.9606 21.7365 23.9914 21.738 24.0452C21.7286 24.0957 21.705 24.1237 21.6611 24.119ZM22.1186 24.6885C22.0774 24.6838 22.0519 24.659 22.0511 24.6052C22.0511 24.5487 22.08 24.5244 22.1197 24.5244C22.1557 24.5244 22.179 24.552 22.1809 24.5978C22.1826 24.6511 22.1619 24.6813 22.1186 24.6885Z" fill="#F8D516"/>
</svg>
