<svg width="157" height="44" viewBox="0 0 157 44" fill="none" xmlns="http://www.w3.org/2000/svg">
<rect width="157" height="44" rx="4.77201" fill="white"/>
<path d="M25.8647 11.0225C26.474 10.3202 26.9386 9.50446 27.2318 8.6221C27.525 7.73975 27.641 6.80817 27.5732 5.88086C25.7025 6.03186 23.966 6.91169 22.7378 8.33079C22.1497 9.01093 21.704 9.80217 21.4271 10.6577C21.1503 11.5131 21.0479 12.4155 21.126 13.3112C22.0385 13.3188 22.9405 13.1164 23.7623 12.7195C24.584 12.3226 25.3034 11.742 25.8647 11.0225ZM29.9264 23.0143C29.9372 21.7792 30.2626 20.5673 30.8717 19.4928C31.4808 18.4184 32.3537 17.5168 33.4079 16.8733C32.7426 15.9147 31.8631 15.1242 30.8391 14.5647C29.8151 14.0051 28.6749 13.6919 27.5087 13.6497C24.9943 13.3918 22.6733 15.1165 21.3355 15.1165C19.9978 15.1165 18.112 13.682 16.0166 13.7142C14.6468 13.7593 13.3121 14.1587 12.1426 14.8734C10.9731 15.5881 10.0088 16.5936 9.34377 17.792C6.50701 22.7241 8.61846 30.0578 11.4552 34.039C12.7447 35.9892 14.3565 38.1974 16.484 38.1168C18.6116 38.0362 19.3047 36.7951 21.7707 36.7951C24.2368 36.7951 24.9943 38.1168 27.0897 38.0685C29.185 38.0201 30.6679 36.0698 32.0218 34.1196C32.9809 32.7036 33.73 31.1564 34.246 29.5259C32.9687 28.9812 31.8788 28.0742 31.1112 26.9169C30.3435 25.7597 29.9316 24.403 29.9264 23.0143Z" fill="black"/>
<rect width="95.9174" height="34.9088" transform="translate(41.4043 4.54541)" fill="white"/>
<path d="M61.4449 12.5454C61.3809 12.5454 61.3314 12.5279 61.2964 12.493C61.2615 12.4522 61.244 12.4028 61.244 12.3445V6.64132C61.244 6.57727 61.2615 6.52778 61.2964 6.49285C61.3314 6.45209 61.3809 6.43171 61.4449 6.43171H63.4275C64.0272 6.43171 64.5105 6.52196 64.8773 6.70246C65.2441 6.88296 65.512 7.1508 65.6808 7.50597C65.8497 7.85533 65.937 8.2862 65.9428 8.79859C65.9487 9.0606 65.9516 9.29059 65.9516 9.48856C65.9516 9.68653 65.9487 9.91361 65.9428 10.1698C65.9312 10.7055 65.8409 11.1509 65.6721 11.5061C65.5091 11.8554 65.247 12.1175 64.886 12.2921C64.5309 12.461 64.0592 12.5454 63.4712 12.5454H61.4449ZM62.0999 11.803H63.4275C63.8292 11.803 64.1495 11.7477 64.3882 11.6371C64.6269 11.5265 64.7987 11.3489 64.9035 11.1043C65.0141 10.8598 65.0724 10.5366 65.0782 10.1349C65.0898 9.96019 65.0957 9.8088 65.0957 9.6807C65.0957 9.54679 65.0957 9.41578 65.0957 9.28768C65.0957 9.15376 65.0898 9.00238 65.0782 8.83352C65.0665 8.26873 64.9326 7.85242 64.6764 7.58458C64.4202 7.31092 63.9894 7.17409 63.3838 7.17409H62.0999V11.803ZM69.4491 12.6327C69.0066 12.6327 68.6368 12.5483 68.3399 12.3795C68.0429 12.2106 67.8158 11.9777 67.6586 11.6808C67.5014 11.378 67.4141 11.0345 67.3966 10.6502C67.3908 10.5512 67.3879 10.426 67.3879 10.2746C67.3879 10.1174 67.3908 9.99221 67.3966 9.89905C67.4141 9.50894 67.5014 9.16541 67.6586 8.86846C67.8217 8.5715 68.0517 8.3386 68.3486 8.16975C68.6456 8.00089 69.0124 7.91647 69.4491 7.91647C69.8858 7.91647 70.2526 8.00089 70.5495 8.16975C70.8465 8.3386 71.0736 8.5715 71.2308 8.86846C71.3938 9.16541 71.4841 9.50894 71.5015 9.89905C71.5074 9.99221 71.5103 10.1174 71.5103 10.2746C71.5103 10.426 71.5074 10.5512 71.5015 10.6502C71.4841 11.0345 71.3967 11.378 71.2395 11.6808C71.0823 11.9777 70.8552 12.2106 70.5583 12.3795C70.2613 12.5483 69.8916 12.6327 69.4491 12.6327ZM69.4491 11.9602C69.8101 11.9602 70.0983 11.8467 70.3137 11.6196C70.5292 11.3867 70.6456 11.049 70.6631 10.6065C70.6689 10.5192 70.6718 10.4085 70.6718 10.2746C70.6718 10.1407 70.6689 10.0301 70.6631 9.94272C70.6456 9.50021 70.5292 9.16541 70.3137 8.93833C70.0983 8.70542 69.8101 8.58897 69.4491 8.58897C69.0881 8.58897 68.7969 8.70542 68.5757 8.93833C68.3603 9.16541 68.2467 9.50021 68.2351 9.94272C68.2292 10.0301 68.2263 10.1407 68.2263 10.2746C68.2263 10.4085 68.2292 10.5192 68.2351 10.6065C68.2467 11.049 68.3603 11.3867 68.5757 11.6196C68.7969 11.8467 69.0881 11.9602 69.4491 11.9602ZM74.1265 12.5454C74.0508 12.5454 73.9925 12.5279 73.9518 12.493C73.911 12.4522 73.8761 12.3969 73.847 12.3271L72.6068 8.27455C72.5951 8.24544 72.5893 8.21633 72.5893 8.18722C72.5893 8.13481 72.6068 8.09114 72.6417 8.05621C72.6825 8.02127 72.7261 8.0038 72.7727 8.0038H73.157C73.2211 8.0038 73.2705 8.02127 73.3055 8.05621C73.3404 8.09114 73.3637 8.12317 73.3753 8.15228L74.3448 11.4449L75.3841 8.18722C75.3958 8.14646 75.4191 8.1057 75.454 8.06494C75.4948 8.02418 75.553 8.0038 75.6287 8.0038H75.9256C76.0013 8.0038 76.0596 8.02418 76.1003 8.06494C76.1411 8.1057 76.1644 8.14646 76.1702 8.18722L77.2095 11.4449L78.179 8.15228C78.1848 8.12317 78.2052 8.09114 78.2401 8.05621C78.275 8.02127 78.3245 8.0038 78.3886 8.0038H78.7729C78.8253 8.0038 78.8689 8.02127 78.9039 8.05621C78.9388 8.09114 78.9563 8.13481 78.9563 8.18722C78.9563 8.21633 78.9505 8.24544 78.9388 8.27455L77.6986 12.3271C77.6811 12.3969 77.6491 12.4522 77.6025 12.493C77.5618 12.5279 77.5006 12.5454 77.4191 12.5454H77.0785C77.0028 12.5454 76.9388 12.5279 76.8864 12.493C76.8398 12.4522 76.8078 12.3969 76.7903 12.3271L75.7772 9.20034L74.764 12.3271C74.7407 12.3969 74.7058 12.4522 74.6592 12.493C74.6126 12.5279 74.5486 12.5454 74.4671 12.5454H74.1265ZM80.5612 12.5454C80.503 12.5454 80.4535 12.5279 80.4127 12.493C80.3778 12.4522 80.3603 12.4028 80.3603 12.3445V8.20468C80.3603 8.14646 80.3778 8.09988 80.4127 8.06494C80.4535 8.02418 80.503 8.0038 80.5612 8.0038H80.9717C81.0299 8.0038 81.0765 8.02418 81.1114 8.06494C81.1522 8.09988 81.1726 8.14646 81.1726 8.20468V8.58897C81.324 8.39101 81.5132 8.23088 81.7403 8.10861C81.9732 7.98051 82.2701 7.91647 82.6311 7.91647C83.0096 7.91647 83.3298 8.00089 83.5918 8.16975C83.8597 8.33278 84.0606 8.56277 84.1945 8.85972C84.3284 9.15085 84.3954 9.49147 84.3954 9.88158V12.3445C84.3954 12.4028 84.3779 12.4522 84.343 12.493C84.308 12.5279 84.2614 12.5454 84.2032 12.5454H83.7665C83.7083 12.5454 83.6588 12.5279 83.618 12.493C83.5831 12.4522 83.5656 12.4028 83.5656 12.3445V9.92525C83.5656 9.51767 83.4667 9.20034 83.2687 8.97326C83.0707 8.74036 82.7796 8.62391 82.3953 8.62391C82.0343 8.62391 81.7432 8.74036 81.5219 8.97326C81.3065 9.20034 81.1988 9.51767 81.1988 9.92525V12.3445C81.1988 12.4028 81.1784 12.4522 81.1376 12.493C81.1027 12.5279 81.0561 12.5454 80.9979 12.5454H80.5612ZM86.3032 12.5454C86.245 12.5454 86.1955 12.5279 86.1548 12.493C86.1198 12.4522 86.1024 12.4028 86.1024 12.3445V6.54525C86.1024 6.48702 86.1198 6.44044 86.1548 6.40551C86.1955 6.36475 86.245 6.34437 86.3032 6.34437H86.7137C86.7778 6.34437 86.8273 6.36475 86.8622 6.40551C86.8971 6.44044 86.9146 6.48702 86.9146 6.54525V12.3445C86.9146 12.4028 86.8971 12.4522 86.8622 12.493C86.8273 12.5279 86.7778 12.5454 86.7137 12.5454H86.3032ZM90.5144 12.6327C90.0719 12.6327 89.7021 12.5483 89.4052 12.3795C89.1082 12.2106 88.8812 11.9777 88.7239 11.6808C88.5667 11.378 88.4794 11.0345 88.4619 10.6502C88.4561 10.5512 88.4532 10.426 88.4532 10.2746C88.4532 10.1174 88.4561 9.99221 88.4619 9.89905C88.4794 9.50894 88.5667 9.16541 88.7239 8.86846C88.887 8.5715 89.117 8.3386 89.4139 8.16975C89.7109 8.00089 90.0777 7.91647 90.5144 7.91647C90.9511 7.91647 91.3179 8.00089 91.6148 8.16975C91.9118 8.3386 92.1389 8.5715 92.2961 8.86846C92.4591 9.16541 92.5494 9.50894 92.5668 9.89905C92.5727 9.99221 92.5756 10.1174 92.5756 10.2746C92.5756 10.426 92.5727 10.5512 92.5668 10.6502C92.5494 11.0345 92.462 11.378 92.3048 11.6808C92.1476 11.9777 91.9205 12.2106 91.6236 12.3795C91.3266 12.5483 90.9569 12.6327 90.5144 12.6327ZM90.5144 11.9602C90.8754 11.9602 91.1636 11.8467 91.379 11.6196C91.5945 11.3867 91.7109 11.049 91.7284 10.6065C91.7342 10.5192 91.7371 10.4085 91.7371 10.2746C91.7371 10.1407 91.7342 10.0301 91.7284 9.94272C91.7109 9.50021 91.5945 9.16541 91.379 8.93833C91.1636 8.70542 90.8754 8.58897 90.5144 8.58897C90.1534 8.58897 89.8623 8.70542 89.641 8.93833C89.4256 9.16541 89.312 9.50021 89.3004 9.94272C89.2946 10.0301 89.2916 10.1407 89.2916 10.2746C89.2916 10.4085 89.2946 10.5192 89.3004 10.6065C89.312 11.049 89.4256 11.3867 89.641 11.6196C89.8623 11.8467 90.1534 11.9602 90.5144 11.9602ZM95.3723 12.6327C95.0812 12.6327 94.8163 12.5745 94.5775 12.4581C94.3388 12.3416 94.1467 12.1844 94.0011 11.9864C93.8555 11.7885 93.7828 11.5643 93.7828 11.3139C93.7828 10.9122 93.9458 10.5919 94.2719 10.3532C94.5979 10.1145 95.023 9.95728 95.547 9.88158L96.8483 9.69817V9.44489C96.8483 9.16541 96.7668 8.94706 96.6038 8.78985C96.4466 8.63264 96.1875 8.55404 95.8265 8.55404C95.5645 8.55404 95.3519 8.60644 95.1889 8.71125C95.0317 8.81605 94.9211 8.94997 94.857 9.113C94.8221 9.20034 94.7609 9.24401 94.6736 9.24401H94.2806C94.2165 9.24401 94.167 9.22654 94.1321 9.19161C94.103 9.15085 94.0884 9.10427 94.0884 9.05187C94.0884 8.96453 94.1205 8.85681 94.1845 8.72871C94.2544 8.60062 94.3592 8.47543 94.4989 8.35316C94.6387 8.23088 94.8163 8.12899 95.0317 8.04747C95.253 7.96013 95.5208 7.91647 95.8352 7.91647C96.1846 7.91647 96.4786 7.96305 96.7173 8.05621C96.9561 8.14355 97.1424 8.26291 97.2763 8.4143C97.416 8.56568 97.515 8.73745 97.5732 8.92959C97.6373 9.12174 97.6693 9.31679 97.6693 9.51476V12.3445C97.6693 12.4028 97.6489 12.4522 97.6082 12.493C97.5732 12.5279 97.5267 12.5454 97.4684 12.5454H97.0667C97.0026 12.5454 96.9531 12.5279 96.9182 12.493C96.8833 12.4522 96.8658 12.4028 96.8658 12.3445V11.969C96.7901 12.0738 96.6882 12.1786 96.5601 12.2834C96.432 12.3824 96.2719 12.4668 96.0798 12.5367C95.8876 12.6007 95.6518 12.6327 95.3723 12.6327ZM95.5557 11.9777C95.7945 11.9777 96.0128 11.9282 96.2108 11.8292C96.4087 11.7244 96.563 11.5643 96.6737 11.3489C96.7901 11.1334 96.8483 10.8627 96.8483 10.5366V10.2921L95.8352 10.4406C95.4218 10.4988 95.1103 10.5978 94.9007 10.7375C94.6911 10.8714 94.5863 11.0432 94.5863 11.2528C94.5863 11.4158 94.6329 11.5527 94.726 11.6633C94.825 11.7681 94.9473 11.8467 95.0928 11.8991C95.2442 11.9515 95.3985 11.9777 95.5557 11.9777ZM101.021 12.6327C100.701 12.6327 100.424 12.5774 100.191 12.4668C99.9584 12.3504 99.7662 12.1961 99.6149 12.0039C99.4693 11.8059 99.3587 11.5818 99.283 11.3314C99.2131 11.081 99.1723 10.8161 99.1607 10.5366C99.1549 10.4435 99.152 10.3561 99.152 10.2746C99.152 10.1931 99.1549 10.1058 99.1607 10.0126C99.1723 9.73893 99.2131 9.47691 99.283 9.22654C99.3587 8.97617 99.4693 8.752 99.6149 8.55404C99.7662 8.35607 99.9584 8.20177 100.191 8.09114C100.424 7.97469 100.701 7.91647 101.021 7.91647C101.365 7.91647 101.65 7.9776 101.877 8.09988C102.104 8.22215 102.29 8.37354 102.436 8.55404V6.54525C102.436 6.48702 102.453 6.44044 102.488 6.40551C102.529 6.36475 102.579 6.34437 102.637 6.34437H103.056C103.114 6.34437 103.161 6.36475 103.196 6.40551C103.236 6.44044 103.257 6.48702 103.257 6.54525V12.3445C103.257 12.4028 103.236 12.4522 103.196 12.493C103.161 12.5279 103.114 12.5454 103.056 12.5454H102.663C102.599 12.5454 102.549 12.5279 102.514 12.493C102.48 12.4522 102.462 12.4028 102.462 12.3445V11.9777C102.317 12.164 102.127 12.3212 101.894 12.4493C101.661 12.5716 101.37 12.6327 101.021 12.6327ZM101.204 11.9253C101.496 11.9253 101.728 11.8583 101.903 11.7244C102.078 11.5905 102.209 11.4217 102.296 11.2179C102.383 11.0083 102.43 10.7957 102.436 10.5803C102.442 10.4871 102.445 10.3765 102.445 10.2484C102.445 10.1145 102.442 10.0009 102.436 9.90779C102.43 9.704 102.381 9.50312 102.287 9.30515C102.2 9.10718 102.066 8.94415 101.886 8.81605C101.711 8.68796 101.484 8.62391 101.204 8.62391C100.907 8.62391 100.672 8.69087 100.497 8.82479C100.322 8.95288 100.197 9.12465 100.121 9.34008C100.046 9.5497 100.002 9.77678 99.9904 10.0213C99.9846 10.1902 99.9846 10.359 99.9904 10.5279C100.002 10.7724 100.046 11.0024 100.121 11.2179C100.197 11.4275 100.322 11.5992 100.497 11.7332C100.672 11.8613 100.907 11.9253 101.204 11.9253ZM109.876 12.6327C109.381 12.6327 108.956 12.5483 108.601 12.3795C108.245 12.2048 107.972 11.9399 107.78 11.5847C107.588 11.2237 107.48 10.7724 107.457 10.2309C107.451 9.97474 107.448 9.7302 107.448 9.49729C107.448 9.25857 107.451 9.01111 107.457 8.75492C107.48 8.21924 107.59 7.77381 107.788 7.41864C107.992 7.05764 108.272 6.7898 108.627 6.61512C108.988 6.43462 109.404 6.34437 109.876 6.34437C110.353 6.34437 110.77 6.43462 111.125 6.61512C111.486 6.7898 111.768 7.05764 111.972 7.41864C112.176 7.77381 112.286 8.21924 112.304 8.75492C112.315 9.01111 112.321 9.25857 112.321 9.49729C112.321 9.7302 112.315 9.97474 112.304 10.2309C112.286 10.7724 112.179 11.2237 111.981 11.5847C111.788 11.9399 111.515 12.2048 111.16 12.3795C110.804 12.5483 110.377 12.6327 109.876 12.6327ZM109.876 11.8904C110.324 11.8904 110.688 11.7565 110.968 11.4886C111.253 11.2208 111.407 10.787 111.43 10.1873C111.442 9.92525 111.448 9.69235 111.448 9.48856C111.448 9.27895 111.442 9.04604 111.43 8.78985C111.419 8.38809 111.343 8.06203 111.203 7.81166C111.069 7.56129 110.889 7.37788 110.662 7.26143C110.435 7.14498 110.173 7.08675 109.876 7.08675C109.59 7.08675 109.334 7.14498 109.107 7.26143C108.88 7.37788 108.697 7.56129 108.557 7.81166C108.423 8.06203 108.347 8.38809 108.33 8.78985C108.324 9.04604 108.321 9.27895 108.321 9.48856C108.321 9.69235 108.324 9.92525 108.33 10.1873C108.353 10.787 108.507 11.2208 108.793 11.4886C109.078 11.7565 109.439 11.8904 109.876 11.8904ZM114.118 12.5454C114.06 12.5454 114.011 12.5279 113.97 12.493C113.935 12.4522 113.917 12.4028 113.917 12.3445V8.20468C113.917 8.14646 113.935 8.09988 113.97 8.06494C114.011 8.02418 114.06 8.0038 114.118 8.0038H114.529C114.587 8.0038 114.634 8.02418 114.669 8.06494C114.709 8.09988 114.73 8.14646 114.73 8.20468V8.58897C114.881 8.39101 115.07 8.23088 115.297 8.10861C115.53 7.98051 115.827 7.91647 116.188 7.91647C116.567 7.91647 116.887 8.00089 117.149 8.16975C117.417 8.33278 117.618 8.56277 117.752 8.85972C117.886 9.15085 117.952 9.49147 117.952 9.88158V12.3445C117.952 12.4028 117.935 12.4522 117.9 12.493C117.865 12.5279 117.819 12.5454 117.76 12.5454H117.324C117.265 12.5454 117.216 12.5279 117.175 12.493C117.14 12.4522 117.123 12.4028 117.123 12.3445V9.92525C117.123 9.51767 117.024 9.20034 116.826 8.97326C116.628 8.74036 116.337 8.62391 115.952 8.62391C115.591 8.62391 115.3 8.74036 115.079 8.97326C114.864 9.20034 114.756 9.51767 114.756 9.92525V12.3445C114.756 12.4028 114.736 12.4522 114.695 12.493C114.66 12.5279 114.613 12.5454 114.555 12.5454H114.118ZM123.657 12.5454C123.599 12.5454 123.549 12.5279 123.509 12.493C123.474 12.4522 123.456 12.4028 123.456 12.3445V7.20902H121.779C121.721 7.20902 121.672 7.19156 121.631 7.15662C121.596 7.11586 121.579 7.06637 121.579 7.00814V6.64132C121.579 6.57727 121.596 6.52778 121.631 6.49285C121.672 6.45209 121.721 6.43171 121.779 6.43171H125.989C126.053 6.43171 126.103 6.45209 126.138 6.49285C126.178 6.52778 126.199 6.57727 126.199 6.64132V7.00814C126.199 7.06637 126.178 7.11586 126.138 7.15662C126.103 7.19156 126.053 7.20902 125.989 7.20902H124.321V12.3445C124.321 12.4028 124.301 12.4522 124.26 12.493C124.225 12.5279 124.175 12.5454 124.111 12.5454H123.657ZM127.531 12.5454C127.473 12.5454 127.424 12.5279 127.383 12.493C127.348 12.4522 127.331 12.4028 127.331 12.3445V6.54525C127.331 6.48702 127.348 6.44044 127.383 6.40551C127.424 6.36475 127.473 6.34437 127.531 6.34437H127.968C128.032 6.34437 128.082 6.36475 128.117 6.40551C128.152 6.44044 128.169 6.48702 128.169 6.54525V8.58024C128.326 8.38227 128.518 8.22215 128.745 8.09988C128.973 7.9776 129.261 7.91647 129.61 7.91647C129.989 7.91647 130.309 8.00089 130.571 8.16975C130.839 8.33278 131.04 8.56277 131.173 8.85972C131.313 9.15085 131.383 9.49147 131.383 9.88158V12.3445C131.383 12.4028 131.366 12.4522 131.331 12.493C131.296 12.5279 131.246 12.5454 131.182 12.5454H130.746C130.687 12.5454 130.638 12.5279 130.597 12.493C130.562 12.4522 130.545 12.4028 130.545 12.3445V9.92525C130.545 9.51767 130.446 9.20034 130.248 8.97326C130.05 8.74036 129.759 8.62391 129.374 8.62391C129.013 8.62391 128.722 8.74036 128.501 8.97326C128.28 9.20034 128.169 9.51767 128.169 9.92525V12.3445C128.169 12.4028 128.152 12.4522 128.117 12.493C128.082 12.5279 128.032 12.5454 127.968 12.5454H127.531ZM134.889 12.6327C134.289 12.6327 133.811 12.4493 133.456 12.0825C133.101 11.7099 132.906 11.2033 132.871 10.5628C132.865 10.4871 132.862 10.3911 132.862 10.2746C132.862 10.1523 132.865 10.0533 132.871 9.97766C132.894 9.56425 132.99 9.20325 133.159 8.89466C133.328 8.58024 133.558 8.3386 133.849 8.16975C134.146 8.00089 134.493 7.91647 134.889 7.91647C135.331 7.91647 135.701 8.00963 135.998 8.19595C136.301 8.38227 136.531 8.6472 136.688 8.99073C136.845 9.33426 136.924 9.73602 136.924 10.196V10.3445C136.924 10.4085 136.903 10.458 136.863 10.493C136.828 10.5279 136.781 10.5454 136.723 10.5454H133.701C133.701 10.5512 133.701 10.5628 133.701 10.5803C133.701 10.5978 133.701 10.6123 133.701 10.624C133.712 10.8627 133.765 11.0869 133.858 11.2965C133.951 11.5003 134.085 11.6662 134.26 11.7943C134.434 11.9224 134.644 11.9864 134.889 11.9864C135.098 11.9864 135.273 11.9544 135.413 11.8904C135.552 11.8263 135.666 11.7565 135.753 11.6808C135.841 11.5992 135.899 11.5381 135.928 11.4973C135.98 11.4217 136.021 11.378 136.05 11.3663C136.079 11.3489 136.126 11.3401 136.19 11.3401H136.609C136.667 11.3401 136.714 11.3576 136.749 11.3925C136.79 11.4217 136.807 11.4653 136.801 11.5235C136.796 11.6109 136.749 11.7186 136.662 11.8467C136.574 11.969 136.449 12.0912 136.286 12.2135C136.123 12.3358 135.925 12.4377 135.692 12.5192C135.459 12.5949 135.191 12.6327 134.889 12.6327ZM133.701 9.94272H136.094V9.91652C136.094 9.6545 136.044 9.4216 135.945 9.21781C135.852 9.01402 135.715 8.8539 135.535 8.73745C135.354 8.61517 135.139 8.55404 134.889 8.55404C134.638 8.55404 134.423 8.61517 134.242 8.73745C134.068 8.8539 133.934 9.01402 133.841 9.21781C133.747 9.4216 133.701 9.6545 133.701 9.91652V9.94272Z" fill="black"/>
<path d="M42.1678 34.4541C42.066 34.4541 41.9769 34.4159 41.9006 34.3396C41.8242 34.2632 41.7861 34.1741 41.7861 34.0723C41.7861 34.0087 41.7924 33.9387 41.8051 33.8624L46.539 21.5124C46.5899 21.3852 46.6599 21.2834 46.7489 21.207C46.838 21.1307 46.9716 21.0925 47.1498 21.0925H48.4478C48.6132 21.0925 48.7405 21.1307 48.8295 21.207C48.9313 21.2834 49.0077 21.3852 49.0586 21.5124L53.7733 33.8624C53.7988 33.9387 53.8115 34.0087 53.8115 34.0723C53.8115 34.1741 53.7733 34.2632 53.697 34.3396C53.6206 34.4159 53.5316 34.4541 53.4298 34.4541H52.4563C52.3036 34.4541 52.189 34.4159 52.1127 34.3396C52.0491 34.2632 52.0045 34.1932 51.9791 34.1296L50.9292 31.4191H44.6684L43.6185 34.1296C43.6058 34.1932 43.5612 34.2632 43.4849 34.3396C43.4085 34.4159 43.294 34.4541 43.1413 34.4541H42.1678ZM45.2219 29.7775H50.3757L47.7988 23.0013L45.2219 29.7775ZM57.0168 38.0808C56.8896 38.0808 56.7814 38.0363 56.6923 37.9472C56.616 37.8709 56.5778 37.7691 56.5778 37.6418V24.9673C56.5778 24.8401 56.616 24.7383 56.6923 24.6619C56.7814 24.5729 56.8896 24.5283 57.0168 24.5283H57.8949C58.0221 24.5283 58.1239 24.5729 58.2003 24.6619C58.2894 24.7383 58.3339 24.8401 58.3339 24.9673V25.8072C58.6393 25.3873 59.0465 25.0373 59.5555 24.7574C60.0645 24.4774 60.7008 24.3374 61.4643 24.3374C62.1769 24.3374 62.7814 24.4583 63.2777 24.7001C63.7867 24.9419 64.2003 25.2728 64.5184 25.6927C64.8493 26.1126 65.0974 26.5898 65.2628 27.1243C65.4283 27.6588 65.5174 28.2314 65.5301 28.8422C65.5428 29.0458 65.5492 29.2622 65.5492 29.4912C65.5492 29.7203 65.5428 29.9366 65.5301 30.1402C65.5174 30.7383 65.4283 31.3109 65.2628 31.8581C65.0974 32.3926 64.8493 32.8698 64.5184 33.2897C64.2003 33.6969 63.7867 34.0278 63.2777 34.2823C62.7814 34.5241 62.1769 34.645 61.4643 34.645C60.7263 34.645 60.1027 34.5114 59.5937 34.2441C59.0974 33.9642 58.6902 33.6206 58.3721 33.2134V37.6418C58.3721 37.7691 58.3339 37.8709 58.2575 37.9472C58.1812 38.0363 58.073 38.0808 57.933 38.0808H57.0168ZM61.0635 33.0989C61.7252 33.0989 62.2406 32.9589 62.6096 32.6789C62.9914 32.3862 63.265 32.0108 63.4304 31.5527C63.5958 31.0819 63.6913 30.5792 63.7167 30.0448C63.7294 29.6757 63.7294 29.3067 63.7167 28.9377C63.6913 28.4032 63.5958 27.9069 63.4304 27.4488C63.265 26.978 62.9914 26.6026 62.6096 26.3226C62.2406 26.0299 61.7252 25.8836 61.0635 25.8836C60.4399 25.8836 59.9309 26.0299 59.5364 26.3226C59.1547 26.6153 58.8684 26.9907 58.6775 27.4488C58.4993 27.8942 58.3975 28.3523 58.3721 28.8231C58.3593 29.0267 58.353 29.2685 58.353 29.5485C58.353 29.8284 58.3593 30.0766 58.3721 30.2929C58.3848 30.7383 58.4866 31.1773 58.6775 31.61C58.8811 32.0426 59.1801 32.399 59.5746 32.6789C59.9691 32.9589 60.4654 33.0989 61.0635 33.0989ZM69.342 38.0808C69.2148 38.0808 69.1066 38.0363 69.0175 37.9472C68.9412 37.8709 68.903 37.7691 68.903 37.6418V24.9673C68.903 24.8401 68.9412 24.7383 69.0175 24.6619C69.1066 24.5729 69.2148 24.5283 69.342 24.5283H70.2201C70.3473 24.5283 70.4491 24.5729 70.5255 24.6619C70.6146 24.7383 70.6591 24.8401 70.6591 24.9673V25.8072C70.9645 25.3873 71.3717 25.0373 71.8807 24.7574C72.3897 24.4774 73.026 24.3374 73.7895 24.3374C74.5021 24.3374 75.1066 24.4583 75.6029 24.7001C76.1119 24.9419 76.5255 25.2728 76.8436 25.6927C77.1745 26.1126 77.4226 26.5898 77.588 27.1243C77.7535 27.6588 77.8426 28.2314 77.8553 28.8422C77.868 29.0458 77.8744 29.2622 77.8744 29.4912C77.8744 29.7203 77.868 29.9366 77.8553 30.1402C77.8426 30.7383 77.7535 31.3109 77.588 31.8581C77.4226 32.3926 77.1745 32.8698 76.8436 33.2897C76.5255 33.6969 76.1119 34.0278 75.6029 34.2823C75.1066 34.5241 74.5021 34.645 73.7895 34.645C73.0515 34.645 72.4279 34.5114 71.9189 34.2441C71.4226 33.9642 71.0154 33.6206 70.6973 33.2134V37.6418C70.6973 37.7691 70.6591 37.8709 70.5827 37.9472C70.5064 38.0363 70.3982 38.0808 70.2582 38.0808H69.342ZM73.3887 33.0989C74.0504 33.0989 74.5658 32.9589 74.9348 32.6789C75.3166 32.3862 75.5902 32.0108 75.7556 31.5527C75.921 31.0819 76.0165 30.5792 76.0419 30.0448C76.0546 29.6757 76.0546 29.3067 76.0419 28.9377C76.0165 28.4032 75.921 27.9069 75.7556 27.4488C75.5902 26.978 75.3166 26.6026 74.9348 26.3226C74.5658 26.0299 74.0504 25.8836 73.3887 25.8836C72.7651 25.8836 72.2561 26.0299 71.8616 26.3226C71.4799 26.6153 71.1936 26.9907 71.0027 27.4488C70.8245 27.8942 70.7227 28.3523 70.6973 28.8231C70.6845 29.0267 70.6782 29.2685 70.6782 29.5485C70.6782 29.8284 70.6845 30.0766 70.6973 30.2929C70.71 30.7383 70.8118 31.1773 71.0027 31.61C71.2063 32.0426 71.5053 32.399 71.8998 32.6789C72.2943 32.9589 72.7906 33.0989 73.3887 33.0989ZM91.3853 34.645C90.2782 34.645 89.3492 34.4796 88.5984 34.1487C87.8476 33.8051 87.2686 33.3661 86.8614 32.8316C86.4669 32.2844 86.2569 31.7054 86.2315 31.0946C86.2315 30.9928 86.2697 30.9037 86.346 30.8274C86.4351 30.7383 86.5369 30.6938 86.6514 30.6938H87.6249C87.7776 30.6938 87.8922 30.7319 87.9685 30.8083C88.0449 30.8846 88.0958 30.9737 88.1212 31.0755C88.1848 31.3809 88.3375 31.6863 88.5793 31.9917C88.8338 32.2844 89.1838 32.5326 89.6292 32.7362C90.0873 32.9271 90.6726 33.0225 91.3853 33.0225C92.4796 33.0225 93.2813 32.8316 93.7904 32.4499C94.3121 32.0554 94.573 31.5336 94.573 30.8846C94.573 30.4393 94.433 30.0829 94.153 29.8157C93.8858 29.5358 93.4722 29.2876 92.9123 29.0713C92.3524 28.8549 91.627 28.6195 90.7363 28.365C89.8073 28.0978 89.0374 27.8051 88.4266 27.487C87.8158 27.1688 87.3577 26.7743 87.0523 26.3035C86.7596 25.8327 86.6133 25.2346 86.6133 24.5092C86.6133 23.8221 86.7978 23.2112 87.1668 22.6768C87.5358 22.1296 88.0639 21.6969 88.7511 21.3788C89.451 21.0607 90.2972 20.9016 91.2898 20.9016C92.0788 20.9016 92.766 21.0098 93.3513 21.2261C93.9494 21.4297 94.4457 21.7097 94.8402 22.066C95.2347 22.4096 95.5337 22.785 95.7373 23.1922C95.9409 23.5866 96.0491 23.9748 96.0618 24.3565C96.0618 24.4456 96.03 24.5347 95.9664 24.6238C95.9028 24.7001 95.801 24.7383 95.661 24.7383H94.6493C94.5602 24.7383 94.4648 24.7128 94.363 24.6619C94.2739 24.611 94.2039 24.5156 94.153 24.3756C94.0767 23.8539 93.784 23.4149 93.275 23.0585C92.766 22.7022 92.1042 22.5241 91.2898 22.5241C90.4627 22.5241 89.7882 22.6831 89.2665 23.0013C88.7575 23.3194 88.503 23.8157 88.503 24.4901C88.503 24.9228 88.6239 25.2855 88.8656 25.5782C89.1074 25.8581 89.4892 26.1063 90.0109 26.3226C90.5327 26.5389 91.2135 26.768 92.0533 27.0098C93.0714 27.2897 93.9049 27.5888 94.5539 27.9069C95.2029 28.2123 95.6801 28.6004 95.9855 29.0713C96.3036 29.5294 96.4627 30.1211 96.4627 30.8465C96.4627 31.6482 96.2527 32.3353 95.8328 32.908C95.4128 33.4679 94.8211 33.9005 94.0576 34.206C93.3068 34.4986 92.416 34.645 91.3853 34.645ZM103.546 34.4541C102.833 34.4541 102.254 34.3205 101.809 34.0533C101.363 33.7733 101.039 33.3852 100.835 32.8889C100.632 32.3799 100.53 31.7818 100.53 31.0946V26.0554H99.0409C98.9137 26.0554 98.8055 26.0172 98.7164 25.9408C98.6401 25.8518 98.6019 25.7436 98.6019 25.6163V24.9673C98.6019 24.8401 98.6401 24.7383 98.7164 24.6619C98.8055 24.5729 98.9137 24.5283 99.0409 24.5283H100.53V21.3406C100.53 21.2134 100.568 21.1116 100.644 21.0352C100.733 20.9461 100.842 20.9016 100.969 20.9016H101.866C101.993 20.9016 102.095 20.9461 102.171 21.0352C102.26 21.1116 102.305 21.2134 102.305 21.3406V24.5283H104.672C104.799 24.5283 104.901 24.5729 104.977 24.6619C105.066 24.7383 105.111 24.8401 105.111 24.9673V25.6163C105.111 25.7436 105.066 25.8518 104.977 25.9408C104.901 26.0172 104.799 26.0554 104.672 26.0554H102.305V30.961C102.305 31.5591 102.407 32.0299 102.61 32.3735C102.814 32.7171 103.177 32.8889 103.698 32.8889H104.863C104.99 32.8889 105.092 32.9334 105.168 33.0225C105.257 33.0989 105.302 33.2007 105.302 33.3279V34.0151C105.302 34.1423 105.257 34.2505 105.168 34.3396C105.092 34.4159 104.99 34.4541 104.863 34.4541H103.546ZM112.147 34.645C111.18 34.645 110.372 34.4605 109.723 34.0914C109.074 33.7224 108.578 33.2134 108.234 32.5644C107.891 31.9027 107.7 31.1519 107.662 30.312C107.649 30.0957 107.642 29.8221 107.642 29.4912C107.642 29.1476 107.649 28.874 107.662 28.6704C107.7 27.8178 107.891 27.067 108.234 26.418C108.59 25.769 109.093 25.26 109.742 24.891C110.391 24.522 111.193 24.3374 112.147 24.3374C113.102 24.3374 113.903 24.522 114.552 24.891C115.201 25.26 115.698 25.769 116.041 26.418C116.397 27.067 116.595 27.8178 116.633 28.6704C116.646 28.874 116.652 29.1476 116.652 29.4912C116.652 29.8221 116.646 30.0957 116.633 30.312C116.595 31.1519 116.404 31.9027 116.06 32.5644C115.717 33.2134 115.22 33.7224 114.571 34.0914C113.922 34.4605 113.114 34.645 112.147 34.645ZM112.147 33.1752C112.936 33.1752 113.566 32.9271 114.037 32.4308C114.508 31.9218 114.762 31.1837 114.8 30.2166C114.813 30.0257 114.82 29.7839 114.82 29.4912C114.82 29.1985 114.813 28.9567 114.8 28.7659C114.762 27.7987 114.508 27.067 114.037 26.5707C113.566 26.0617 112.936 25.8072 112.147 25.8072C111.358 25.8072 110.722 26.0617 110.238 26.5707C109.768 27.067 109.519 27.7987 109.494 28.7659C109.481 28.9567 109.475 29.1985 109.475 29.4912C109.475 29.7839 109.481 30.0257 109.494 30.2166C109.519 31.1837 109.768 31.9218 110.238 32.4308C110.722 32.9271 111.358 33.1752 112.147 33.1752ZM120.436 34.4541C120.308 34.4541 120.2 34.4159 120.111 34.3396C120.035 34.2505 119.997 34.1423 119.997 34.0151V24.9864C119.997 24.8592 120.035 24.751 120.111 24.6619C120.2 24.5729 120.308 24.5283 120.436 24.5283H121.314C121.441 24.5283 121.549 24.5729 121.638 24.6619C121.727 24.751 121.772 24.8592 121.772 24.9864V25.8263C122.026 25.3936 122.376 25.0692 122.822 24.8528C123.267 24.6365 123.801 24.5283 124.425 24.5283H125.189C125.316 24.5283 125.418 24.5729 125.494 24.6619C125.57 24.7383 125.608 24.8401 125.608 24.9673V25.75C125.608 25.8772 125.57 25.979 125.494 26.0554C125.418 26.1317 125.316 26.1699 125.189 26.1699H124.043C123.356 26.1699 122.815 26.3735 122.421 26.7807C122.026 27.1752 121.829 27.716 121.829 28.4032V34.0151C121.829 34.1423 121.784 34.2505 121.695 34.3396C121.606 34.4159 121.498 34.4541 121.371 34.4541H120.436ZM131.967 34.645C130.656 34.645 129.613 34.2441 128.837 33.4424C128.06 32.628 127.634 31.5209 127.558 30.1211C127.545 29.9557 127.539 29.7457 127.539 29.4912C127.539 29.224 127.545 29.0076 127.558 28.8422C127.609 27.9387 127.819 27.1497 128.188 26.4753C128.557 25.7881 129.059 25.26 129.696 24.891C130.345 24.522 131.102 24.3374 131.967 24.3374C132.934 24.3374 133.742 24.541 134.391 24.9483C135.053 25.3555 135.556 25.9345 135.899 26.6853C136.243 27.4361 136.415 28.3141 136.415 29.3194V29.6439C136.415 29.7839 136.37 29.8921 136.281 29.9684C136.205 30.0448 136.103 30.0829 135.976 30.0829H129.371C129.371 30.0957 129.371 30.1211 129.371 30.1593C129.371 30.1975 129.371 30.2293 129.371 30.2547C129.396 30.7765 129.511 31.2664 129.715 31.7245C129.918 32.1699 130.211 32.5326 130.593 32.8125C130.974 33.0925 131.433 33.2325 131.967 33.2325C132.425 33.2325 132.807 33.1625 133.112 33.0225C133.418 32.8825 133.666 32.7298 133.857 32.5644C134.048 32.3862 134.175 32.2526 134.238 32.1635C134.353 31.9981 134.442 31.9027 134.506 31.8772C134.569 31.839 134.671 31.82 134.811 31.82H135.727C135.855 31.82 135.956 31.8581 136.033 31.9345C136.122 31.9981 136.16 32.0935 136.147 32.2208C136.135 32.4117 136.033 32.6471 135.842 32.9271C135.651 33.1943 135.377 33.4615 135.021 33.7288C134.665 33.996 134.232 34.2187 133.723 34.3968C133.214 34.5623 132.629 34.645 131.967 34.645ZM129.371 28.7659H134.601V28.7086C134.601 28.136 134.493 27.6269 134.277 27.1816C134.073 26.7362 133.774 26.3862 133.38 26.1317C132.985 25.8645 132.514 25.7309 131.967 25.7309C131.42 25.7309 130.949 25.8645 130.555 26.1317C130.173 26.3862 129.88 26.7362 129.676 27.1816C129.473 27.6269 129.371 28.136 129.371 28.7086V28.7659Z" fill="black"/>
</svg>
