<svg width="1280" height="6570" viewBox="0 0 1280 6570" fill="none" xmlns="http://www.w3.org/2000/svg">
<g clip-path="url(#clip0_3555_13786)">
<rect width="1280" height="6570" fill="black"/>
<g filter="url(#filter0_f_3555_13786)">
<ellipse cx="1400" cy="3544" rx="271" ry="559" fill="#000980" fill-opacity="0.5"/>
</g>
<g filter="url(#filter1_f_3555_13786)">
<path fill-rule="evenodd" clip-rule="evenodd" d="M1187.5 2847.74C1542.55 2847.74 1830.38 2506.25 1830.38 2085C1830.38 1663.75 1542.55 1322.26 1187.5 1322.26C832.445 1322.26 544.617 1663.75 544.617 2085C544.617 2506.25 832.445 2847.74 1187.5 2847.74ZM1187.5 2890C1562.23 2890 1866 2529.59 1866 2085C1866 1640.41 1562.23 1280 1187.5 1280C812.775 1280 509 1640.41 509 2085C509 2529.59 812.775 2890 1187.5 2890Z" fill="url(#paint0_linear_3555_13786)" fill-opacity="0.3"/>
<path fill-rule="evenodd" clip-rule="evenodd" d="M909.001 1691.22C725.696 1873.71 701.786 2197.94 855.597 2415.42C1009.41 2632.9 1282.69 2661.27 1466 2478.78C1649.3 2296.3 1673.21 1972.06 1519.4 1754.58C1365.59 1537.1 1092.31 1508.73 909.001 1691.22ZM897.554 1675.03C706.715 1865.02 681.822 2202.59 841.955 2429C1002.09 2655.42 1286.61 2684.96 1477.45 2494.97C1668.28 2304.98 1693.18 1967.42 1533.04 1741C1372.91 1514.58 1088.39 1485.04 897.554 1675.03Z" fill="url(#paint1_linear_3555_13786)" fill-opacity="0.3"/>
<path fill-rule="evenodd" clip-rule="evenodd" d="M1056.28 1899.46C969.915 1985.44 958.65 2138.21 1031.12 2240.68C1103.59 2343.15 1232.35 2356.52 1318.72 2270.54C1405.09 2184.55 1416.35 2031.79 1343.88 1929.32C1271.41 1826.85 1142.65 1813.48 1056.28 1899.46ZM1044.83 1883.28C950.934 1976.76 938.686 2142.86 1017.48 2254.26C1096.27 2365.67 1236.27 2380.2 1330.17 2286.72C1424.07 2193.24 1436.32 2027.14 1357.52 1915.73C1278.73 1804.33 1138.74 1789.8 1044.83 1883.28Z" fill="url(#paint2_linear_3555_13786)" fill-opacity="0.3"/>
</g>
<g filter="url(#filter2_f_3555_13786)">
<ellipse cx="1149.5" cy="3279" rx="206.5" ry="217" fill="white" fill-opacity="0.6"/>
</g>
<g filter="url(#filter3_f_3555_13786)">
<ellipse cx="-35" cy="3300.5" rx="271" ry="320.5" fill="#000980" fill-opacity="0.5"/>
</g>
<g filter="url(#filter4_f_3555_13786)">
<path d="M-412 2172H236L58 3235.42H-320L-412 2172Z" fill="url(#paint3_linear_3555_13786)"/>
</g>
<g filter="url(#filter5_f_3555_13786)">
<ellipse cx="29.5" cy="5395.64" rx="206.5" ry="338.361" fill="white" fill-opacity="0.6"/>
</g>
<g filter="url(#filter6_f_3555_13786)">
<path d="M1581 5346C1813.02 5346 1995 5508.99 1995 5703C1995 5897.01 1813.02 6060 1581 6060C1348.98 6060 1167 5897.01 1167 5703C1167 5508.99 1348.98 5346 1581 5346Z" stroke="#078282" stroke-opacity="0.5" stroke-width="50"/>
</g>
</g>
<defs>
<filter id="filter0_f_3555_13786" x="826" y="2682" width="1148" height="1724" filterUnits="userSpaceOnUse" color-interpolation-filters="sRGB">
<feFlood flood-opacity="0" result="BackgroundImageFix"/>
<feBlend mode="normal" in="SourceGraphic" in2="BackgroundImageFix" result="shape"/>
<feGaussianBlur stdDeviation="151.5" result="effect1_foregroundBlur_3555_13786"/>
</filter>
<filter id="filter1_f_3555_13786" x="415.37" y="1186.37" width="1544.26" height="1797.26" filterUnits="userSpaceOnUse" color-interpolation-filters="sRGB">
<feFlood flood-opacity="0" result="BackgroundImageFix"/>
<feBlend mode="normal" in="SourceGraphic" in2="BackgroundImageFix" result="shape"/>
<feGaussianBlur stdDeviation="46.815" result="effect1_foregroundBlur_3555_13786"/>
</filter>
<filter id="filter2_f_3555_13786" x="46.2609" y="2165.26" width="2206.48" height="2227.48" filterUnits="userSpaceOnUse" color-interpolation-filters="sRGB">
<feFlood flood-opacity="0" result="BackgroundImageFix"/>
<feBlend mode="normal" in="SourceGraphic" in2="BackgroundImageFix" result="shape"/>
<feGaussianBlur stdDeviation="448.37" result="effect1_foregroundBlur_3555_13786"/>
</filter>
<filter id="filter3_f_3555_13786" x="-609" y="2677" width="1148" height="1247" filterUnits="userSpaceOnUse" color-interpolation-filters="sRGB">
<feFlood flood-opacity="0" result="BackgroundImageFix"/>
<feBlend mode="normal" in="SourceGraphic" in2="BackgroundImageFix" result="shape"/>
<feGaussianBlur stdDeviation="151.5" result="effect1_foregroundBlur_3555_13786"/>
</filter>
<filter id="filter4_f_3555_13786" x="-559.065" y="2024.93" width="942.13" height="1357.55" filterUnits="userSpaceOnUse" color-interpolation-filters="sRGB">
<feFlood flood-opacity="0" result="BackgroundImageFix"/>
<feBlend mode="normal" in="SourceGraphic" in2="BackgroundImageFix" result="shape"/>
<feGaussianBlur stdDeviation="73.5326" result="effect1_foregroundBlur_3555_13786"/>
</filter>
<filter id="filter5_f_3555_13786" x="-1073.74" y="4160.54" width="2206.48" height="2470.2" filterUnits="userSpaceOnUse" color-interpolation-filters="sRGB">
<feFlood flood-opacity="0" result="BackgroundImageFix"/>
<feBlend mode="normal" in="SourceGraphic" in2="BackgroundImageFix" result="shape"/>
<feGaussianBlur stdDeviation="448.37" result="effect1_foregroundBlur_3555_13786"/>
</filter>
<filter id="filter6_f_3555_13786" x="1092" y="5271" width="978" height="864" filterUnits="userSpaceOnUse" color-interpolation-filters="sRGB">
<feFlood flood-opacity="0" result="BackgroundImageFix"/>
<feBlend mode="normal" in="SourceGraphic" in2="BackgroundImageFix" result="shape"/>
<feGaussianBlur stdDeviation="25" result="effect1_foregroundBlur_3555_13786"/>
</filter>
<linearGradient id="paint0_linear_3555_13786" x1="1415.67" y1="-166.484" x2="2613.22" y2="2308.46" gradientUnits="userSpaceOnUse">
<stop offset="0.00887753" stop-color="#DEF9FA"/>
<stop offset="0.1723" stop-color="#BEF3F5"/>
<stop offset="0.4204" stop-color="#9DEDF0"/>
<stop offset="0.5512" stop-color="#7DE7EB"/>
<stop offset="0.7154" stop-color="#5CE1E6"/>
<stop offset="1" stop-color="#33BBCF"/>
</linearGradient>
<linearGradient id="paint1_linear_3555_13786" x1="1882.24" y1="3347.32" x2="386.22" y2="2682.14" gradientUnits="userSpaceOnUse">
<stop offset="0.00887753" stop-color="#DEF9FA"/>
<stop offset="0.1723" stop-color="#BEF3F5"/>
<stop offset="0.4204" stop-color="#9DEDF0"/>
<stop offset="0.5512" stop-color="#7DE7EB"/>
<stop offset="0.7154" stop-color="#5CE1E6"/>
<stop offset="1" stop-color="#33BBCF"/>
</linearGradient>
<linearGradient id="paint2_linear_3555_13786" x1="1529.34" y1="2706.11" x2="793.237" y2="2378.82" gradientUnits="userSpaceOnUse">
<stop offset="0.00887753" stop-color="#DEF9FA"/>
<stop offset="0.1723" stop-color="#BEF3F5"/>
<stop offset="0.4204" stop-color="#9DEDF0"/>
<stop offset="0.5512" stop-color="#7DE7EB"/>
<stop offset="0.7154" stop-color="#5CE1E6"/>
<stop offset="1" stop-color="#33BBCF"/>
</linearGradient>
<linearGradient id="paint3_linear_3555_13786" x1="-88" y1="2172" x2="-88" y2="3235.42" gradientUnits="userSpaceOnUse">
<stop stop-color="#ADEBEB" stop-opacity="0"/>
<stop offset="1" stop-color="#070707"/>
</linearGradient>
<clipPath id="clip0_3555_13786">
<rect width="1280" height="6570" fill="white"/>
</clipPath>
</defs>
</svg>
