<svg width="36" height="36" viewBox="0 0 36 36" fill="none" xmlns="http://www.w3.org/2000/svg">
<circle cx="18.5" cy="18.5" r="17.5" fill="#FFD9D9"/>
<path d="M6 14.7625H30V21.3075H6V14.7625Z" fill="#E6E7E8"/>
<path d="M26.25 7.75H9.75C7.26488 7.75 6 10.0524 6 12.8925V14.7625H30V12.8925C30 10.0524 28.7351 7.75 26.25 7.75Z" fill="#EC1C24"/>
<path d="M6 23.1775C6 26.0176 7.26488 28.32 9.75 28.32H26.25C28.7351 28.32 30 26.0176 30 23.1775V21.3075H6V23.1775Z" fill="#25333A"/>
<path fill-rule="evenodd" clip-rule="evenodd" d="M20.4622 16.3557C20.521 16.7746 20.5198 17.1944 20.5456 17.6152C20.5947 18.4193 20.6331 19.2271 20.675 20.0336V20.1794C20.3591 19.9475 20.0695 19.7372 19.7829 19.5244C19.7752 19.5034 19.7883 19.4889 19.8075 19.4744C19.8597 19.4286 19.8411 19.3744 19.8369 19.3248C19.8075 18.9765 19.7991 18.6268 19.7757 18.2772C19.7446 17.7723 19.7254 17.2683 19.687 16.7634C19.6768 16.6086 19.741 16.4974 19.9118 16.4198C20.0192 16.3702 20.0911 16.3903 20.0947 16.4876C20.1043 16.6769 20.1127 16.8658 20.1259 17.0551C20.1636 17.5997 20.1852 18.1453 20.2188 18.6895C20.2344 18.9424 20.2656 19.1944 20.2554 19.4464C20.2518 19.5221 20.2578 19.596 20.2728 19.6409C20.223 19.4828 20.2632 19.2935 20.244 19.1046C20.2086 18.7835 20.2008 18.4609 20.1834 18.1383C20.1577 17.5881 20.1169 17.0402 20.0965 16.4899C20.0917 16.3141 20.1391 16.2907 20.3597 16.3525C20.3933 16.3571 20.4286 16.3403 20.4622 16.3557ZM15.7679 19.6179C15.5191 19.7984 15.2691 19.9784 15.0029 20.1691C15.0029 19.9962 14.9957 19.847 15.0041 19.6951C15.0568 18.6867 15.1138 17.6774 15.1683 16.6671C15.1743 16.5628 15.1893 16.4595 15.2013 16.3553C15.2367 16.344 15.2613 16.3852 15.2984 16.3641C15.3332 16.3442 15.3731 16.3303 15.4153 16.3235C15.5137 16.3104 15.5694 16.3468 15.5694 16.4249C15.5694 16.6647 15.549 16.9018 15.5341 17.1383C15.5239 17.3235 15.5065 17.5086 15.5005 17.6937C15.4855 18.1107 15.4549 18.5268 15.4351 18.9415C15.4225 19.1734 15.4165 19.4062 15.3992 19.6362C15.4219 19.4197 15.4219 19.1991 15.4333 18.9812C15.4717 18.28 15.5111 17.5787 15.5514 16.8775C15.5574 16.7522 15.5748 16.6255 15.5688 16.4988C15.5664 16.4562 15.5748 16.4137 15.6324 16.3964C15.6827 16.3791 15.7217 16.4067 15.7637 16.4249C15.9232 16.4988 15.9837 16.6049 15.9759 16.7508C15.9407 17.3447 15.9075 17.9388 15.8764 18.5329C15.862 18.7998 15.8644 19.0686 15.8242 19.336C15.8128 19.4291 15.7811 19.5226 15.7679 19.6179Z" fill="#BF9200"/>
<path fill-rule="evenodd" clip-rule="evenodd" d="M15.7679 19.6179C15.7271 19.5312 15.7254 19.4362 15.7631 19.3487C15.7835 19.3459 15.8158 19.3884 15.8242 19.3417C15.829 19.2996 15.8446 19.2603 15.8446 19.2201C15.8446 18.948 15.8692 18.6764 15.886 18.4067C15.91 18.021 15.9213 17.6343 15.9561 17.2501C15.9687 17.1206 15.9669 16.9897 15.9705 16.8606C15.9729 16.791 15.9687 16.705 16.0766 16.6844C16.1839 16.6643 16.2475 16.733 16.3062 16.7947C16.3416 16.8321 16.344 16.8775 16.3404 16.9233C16.3086 17.2903 16.3021 17.6568 16.2787 18.0242C16.2583 18.3805 16.2421 18.7362 16.2205 19.0939C16.2525 18.5675 16.2817 18.0406 16.308 17.5133C16.3146 17.3473 16.3308 17.1813 16.3368 17.013C16.3416 16.8798 16.3872 16.8541 16.5604 16.8667C16.6414 16.8737 16.7193 16.8859 16.8021 16.8901C16.8398 16.9013 16.8812 16.9121 16.8926 16.9476C16.8758 16.9953 16.8212 16.9901 16.7775 16.9911C16.6822 16.9962 16.6498 17.0397 16.6762 17.1033C16.7067 17.171 16.6953 17.2407 16.6995 17.3085C16.6953 17.3702 16.6935 17.4319 16.687 17.4936C16.6672 17.629 16.657 17.7651 16.6564 17.9013C16.6528 18.1481 16.6228 18.3964 16.6144 18.6427C16.5851 18.7338 16.5779 18.8283 16.5934 18.9214C16.6012 18.9513 16.6126 18.9812 16.6222 19.0111C16.6312 19.0555 16.6078 19.0957 16.5766 19.1303C16.5614 19.1434 16.5428 19.1537 16.522 19.1605C16.5012 19.1674 16.4787 19.1707 16.4561 19.1701C16.398 19.1631 16.3728 19.2 16.3398 19.2224L15.7679 19.6179ZM19.8111 19.5076C19.8007 19.5138 19.7911 19.5202 19.7823 19.5268C19.6588 19.437 19.5329 19.3482 19.4112 19.2566C19.4022 19.2365 19.4136 19.2206 19.428 19.2047C19.44 19.1874 19.437 19.1691 19.437 19.15C19.428 18.5993 19.3896 18.0518 19.3543 17.503C19.3417 17.3034 19.3513 17.1019 19.3231 16.9027C19.3166 16.8684 19.3266 16.8334 19.3513 16.8045C19.4088 16.7409 19.473 16.6657 19.5875 16.6872C19.6942 16.7078 19.6912 16.7942 19.6924 16.8634C19.7122 17.4721 19.7602 18.0808 19.7943 18.6895C19.8063 18.9073 19.7943 19.128 19.8357 19.3454C19.8447 19.3973 19.8549 19.4562 19.8111 19.5076ZM19.4322 19.8423C19.4442 19.9302 19.4904 19.9513 19.6085 19.9251C19.7913 19.884 20.0479 19.9817 20.0108 20.163C20.0024 20.2126 20.0186 20.2453 20.0827 20.2687C20.1768 20.3028 20.2104 20.3982 20.3255 20.4146C20.3423 20.4178 20.3513 20.4445 20.3363 20.4534C20.2284 20.5025 20.2602 20.6207 20.1582 20.6736C20.1445 20.682 20.1247 20.696 20.1229 20.7082C20.1157 20.8699 19.9622 20.8989 19.8027 20.9255C19.0461 21.0541 18.2793 21.0663 17.5101 21.0541C16.943 21.0466 16.377 21.0223 15.8218 20.9162C15.6755 20.89 15.5826 20.847 15.5323 20.7198C15.4925 20.6314 15.4331 20.5491 15.3566 20.4767C15.3122 20.4342 15.3242 20.43 15.374 20.3982C15.4993 20.3187 15.6713 20.2706 15.6611 20.0962C15.6534 19.9714 15.8794 19.8783 16.0562 19.9242C16.1714 19.9536 16.2199 19.9316 16.2325 19.8423C16.2709 19.8363 16.2859 19.8573 16.2997 19.8783C16.32 19.912 16.3152 19.9461 16.3098 19.9817C16.3028 19.9974 16.2887 20.0107 16.2703 20.0191C16.2145 20.0396 16.1594 20.0275 16.106 20.0153C16.0676 20.0055 16.0203 19.9915 15.9861 20.0233C15.9435 20.0649 16.0083 20.077 16.0263 20.1032C16.0357 20.1158 16.0399 20.1303 16.0383 20.1448C16.0293 20.1691 16.0035 20.1818 15.9783 20.1934C15.8914 20.2089 15.8194 20.2393 15.7811 20.3084C15.7637 20.3421 15.7181 20.3603 15.6761 20.3823C15.5586 20.4464 15.5472 20.4968 15.6348 20.5829C15.651 20.6002 15.6773 20.617 15.6827 20.6376C15.7181 20.775 15.8548 20.7984 16.0005 20.8208C16.4915 20.8947 16.9903 20.9274 17.4915 20.9298C17.9406 20.933 18.3878 20.9396 18.8357 20.9073C19.1528 20.8844 19.4706 20.8596 19.7799 20.7984C19.8711 20.7806 19.9388 20.753 19.961 20.675C19.9712 20.639 20.0048 20.609 20.0341 20.5796C20.1127 20.5039 20.1079 20.4464 20.0102 20.3917C19.9428 20.3622 19.8873 20.3189 19.8495 20.2664C19.8105 20.2061 19.7362 20.2145 19.6618 20.2224C19.4598 20.2491 19.2649 20.2944 19.0641 20.3248C19.0377 20.322 19.0203 20.3108 19.0053 20.2925C18.9916 20.2759 18.9835 20.2567 18.9818 20.2369C18.9801 20.2172 18.9849 20.1974 18.9958 20.1794C19.0064 20.163 19.0239 20.1499 19.0455 20.1425C19.2625 20.2117 19.4478 20.1013 19.651 20.0822C19.6792 20.0789 19.6948 20.0621 19.6918 20.042C19.6816 20.0116 19.6504 20.0032 19.6121 20.0074C19.5431 20.0135 19.4754 20.0457 19.4022 20.0228C19.383 20.0143 19.3679 20.0012 19.3591 19.9854C19.3486 19.9503 19.3513 19.9136 19.3669 19.8797C19.3795 19.8582 19.3938 19.8367 19.4346 19.8423" fill="#BF9200"/>
<path fill-rule="evenodd" clip-rule="evenodd" d="M19.4394 19.2365L19.4107 19.2538C19.3231 19.2248 19.2806 19.1444 19.1822 19.1261C19.1725 19.1322 19.161 19.1363 19.1487 19.1378C19.1364 19.1394 19.1238 19.1384 19.1121 19.135C19.0563 19.1065 19.0365 19.0672 19.0395 19.0177C19.0449 18.9868 19.0617 18.9583 19.0677 18.9261C19.0861 18.836 19.0802 18.744 19.0503 18.6558C19.0383 18.3866 19.006 18.1196 19.0048 17.8494C19.0048 17.7601 19.0216 17.6652 18.9532 17.5834C18.9294 17.5704 18.9107 17.5524 18.8993 17.5315C18.9244 17.3973 18.9592 17.2646 18.9802 17.129C18.997 17.0173 19.0018 17.0116 18.8609 16.9915C18.8243 16.9864 18.7847 16.9864 18.7704 16.9499C18.7811 16.9125 18.8249 16.9032 18.8639 16.8906C18.9532 16.8845 19.0425 16.8705 19.1319 16.8639C19.2674 16.8536 19.3177 16.884 19.3255 16.9906C19.3387 17.2033 19.3477 17.4146 19.3591 17.6264C19.3945 18.1514 19.4101 18.6797 19.4508 19.2056C19.4508 19.2168 19.4436 19.2271 19.4394 19.2365Z" fill="#BF9200"/>
<path fill-rule="evenodd" clip-rule="evenodd" d="M19.127 19.1243L19.1828 19.1257L19.2955 19.48C19.3117 19.5011 19.3099 19.5193 19.2799 19.5329C19.2577 19.5418 19.2278 19.509 19.2074 19.5418C19.1103 19.689 19.1474 19.826 19.3213 19.9302C19.3447 19.9429 19.3693 19.9532 19.38 19.977L19.4136 19.998C19.4124 20.0499 19.3567 20.0537 19.3165 20.0621C19.2116 20.0789 19.1103 20.1051 19.0023 20.0995C18.9645 20.0995 18.9272 20.1057 18.8926 20.1177C18.678 20.1504 18.461 20.1486 18.2451 20.1425C18.2074 20.1406 18.163 20.1378 18.151 20.1771C18.1408 20.2145 18.1798 20.2266 18.2176 20.2351C18.3135 20.2603 18.4136 20.251 18.5107 20.2552C18.5647 20.2575 18.6246 20.243 18.6666 20.2855C18.6732 20.344 18.6138 20.3468 18.5641 20.3533C18.5029 20.3605 18.4409 20.3614 18.3794 20.3561C18.2559 20.3505 18.1432 20.3683 18.0515 20.4403C18.0393 20.4511 18.0241 20.4596 18.0071 20.4651C17.91 20.4908 17.8285 20.4057 17.7043 20.4627C17.6306 20.4978 17.5149 20.3921 17.4585 20.3131C17.4521 20.2972 17.4513 20.2803 17.4561 20.264C17.4651 20.2276 17.5425 20.2136 17.5131 20.1696C17.4813 20.1243 17.4178 20.1467 17.3698 20.1425C17.2637 20.1341 17.1504 20.1799 17.0551 20.1154C17.0497 20.041 17.1468 20.0509 17.1906 20.0144C17.2171 19.997 17.2501 19.9866 17.2847 19.9849C17.3059 19.9853 17.325 19.9907 17.3422 20.0013C17.3584 20.0135 17.3758 20.0298 17.4004 20.028C17.5491 20.0163 17.6708 20.0565 17.7823 20.1266C17.8099 20.1439 17.8428 20.1514 17.8728 20.1313C17.9921 20.0597 18.1246 20.0172 18.2823 20.0261C18.2985 20.0261 18.3117 20.0097 18.3261 20.0004C18.3423 19.9907 18.3615 19.9844 18.3818 19.9821C18.4867 20.0144 18.5611 20.0116 18.615 19.9129C18.6624 19.8246 18.7254 19.8325 18.862 19.9279C18.958 19.8241 18.9574 19.8022 18.8417 19.6699C18.7757 19.7124 18.7763 19.8124 18.666 19.8115C18.5635 19.8115 18.5413 19.7288 18.4813 19.6843C18.4256 19.7339 18.4694 19.8344 18.3441 19.8475C18.2853 19.8176 18.2805 19.7732 18.2907 19.7259C18.3357 19.6254 18.3285 19.5231 18.3153 19.4211C18.3204 19.4046 18.3293 19.3889 18.3417 19.3749C18.4046 19.3169 18.3896 19.2421 18.4124 19.1752C18.4328 19.1177 18.4304 19.0369 18.5341 19.0298C18.6264 19.0252 18.6672 19.0944 18.7122 19.1458C18.7245 19.1591 18.7322 19.1748 18.7343 19.1911C18.7278 19.1458 18.7535 19.0883 18.7943 19.0369C18.8477 18.9705 18.9472 18.9765 19.0203 19.0471C19.0503 19.0766 19.0635 19.1224 19.127 19.1243Z" fill="#BF9200"/>
<path fill-rule="evenodd" clip-rule="evenodd" d="M17.2583 20.0639C17.1995 20.1051 17.1174 20.0691 17.0562 20.1046C16.9729 20.1822 16.8752 20.1126 16.7852 20.1196C16.7445 20.1135 16.7085 20.0971 16.6671 20.0995C16.558 20.1051 16.4543 20.0789 16.3494 20.0621C16.308 20.0537 16.2517 20.0504 16.2493 19.998L16.2828 19.977C16.293 19.9531 16.3182 19.9433 16.3416 19.9302C16.5137 19.826 16.5538 19.689 16.4573 19.5431C16.4351 19.5114 16.4063 19.5417 16.383 19.5333C16.3518 19.5198 16.3518 19.5015 16.3674 19.4805C16.3806 19.3739 16.4555 19.2785 16.4555 19.1706C16.4628 19.1582 16.474 19.1475 16.488 19.1395C16.5021 19.1315 16.5185 19.1264 16.5358 19.1247C16.579 19.1247 16.6042 19.1037 16.6234 19.0752C16.6593 19.0242 16.7103 18.9836 16.7924 18.9915C16.8728 18.9994 16.8854 19.0579 16.91 19.1065C16.9165 19.1187 16.9165 19.135 16.9321 19.1453C16.9423 19.1472 16.9477 19.143 16.9549 19.136C17.0071 19.0911 17.0442 19.0144 17.1396 19.0317C17.2475 19.0509 17.2367 19.1388 17.2559 19.2051C17.2715 19.258 17.2679 19.3164 17.3326 19.3538C17.3475 19.3653 17.3582 19.3797 17.3638 19.3954C17.3374 19.5109 17.3182 19.624 17.3878 19.7362C17.392 19.7792 17.3788 19.8157 17.3326 19.8419C17.1893 19.8461 17.2433 19.732 17.1815 19.6857C17.0101 19.8596 16.9831 19.8596 16.829 19.6759C16.7127 19.776 16.7091 19.7993 16.7894 19.9256C16.8332 19.927 16.847 19.891 16.8764 19.8755C16.9375 19.8423 17.0047 19.84 17.0353 19.891C17.079 19.9761 17.1695 20.0172 17.2583 20.0639ZM17.4256 15.9205C17.4519 15.7877 17.4981 15.6578 17.4879 15.5226C17.4859 15.478 17.4701 15.4343 17.4417 15.3955C17.4133 15.3566 17.3732 15.3237 17.3248 15.2997C17.2956 15.2877 17.2631 15.2816 17.2301 15.2819C17.1797 15.2777 17.115 15.3665 17.0826 15.2777C17.0688 15.2435 17.0678 15.207 17.0798 15.1725C17.0918 15.1379 17.1163 15.1068 17.1504 15.0827C17.1678 15.0701 17.1935 15.0584 17.2133 15.0594C17.4987 15.0748 17.7865 14.9878 18.0712 15.0846C18.2205 15.137 18.3123 15.2122 18.3225 15.3417C18.335 15.3642 18.3392 15.3852 18.3075 15.3992C18.2619 15.3992 18.2373 15.374 18.2229 15.3473C18.1726 15.2496 18.0671 15.2421 17.9765 15.2838C17.7919 15.3716 17.6504 15.3141 17.5149 15.222C17.4585 15.1871 17.3946 15.1603 17.326 15.143C17.4507 15.1664 17.5533 15.2342 17.645 15.3071C17.7109 15.3576 17.7331 15.4133 17.6534 15.481C17.5586 15.56 17.6144 15.6722 17.5754 15.7662C17.5455 15.8359 17.5682 15.9261 17.4465 15.9593C17.4232 15.9518 17.4142 15.9397 17.4256 15.9205ZM18.5155 16.3557C18.5437 16.41 18.6048 16.4001 18.6606 16.3978C18.9202 16.3903 19.148 16.3099 19.3722 16.2188C19.3974 16.2066 19.4106 16.2164 19.4202 16.2337C19.4178 16.2954 19.3542 16.3216 19.2979 16.3478C19.203 16.3902 19.1012 16.4223 18.9951 16.4432C18.8686 16.4717 18.7463 16.5128 18.6258 16.5404C18.4609 16.5797 18.2709 16.6568 18.0838 16.5628C18.0341 16.5385 17.9849 16.5324 17.925 16.561C17.7877 16.6292 17.7061 16.5956 17.6684 16.4637C17.6711 16.4561 17.6758 16.4489 17.6823 16.4428C17.6889 16.4367 17.697 16.4317 17.7061 16.4282C17.883 16.4254 17.8878 16.4231 17.8854 16.2763C17.8854 16.2379 17.877 16.2015 17.8824 16.1645C17.9004 16.0935 17.9052 16.0215 17.904 15.9499C17.9034 15.9093 17.8938 15.8681 17.9429 15.8396C18.0383 15.8368 18.0281 15.8943 18.0323 15.9397C18.0425 16.0654 18.0281 16.1907 18.0629 16.316C18.076 16.367 18.0976 16.4072 18.1846 16.4343C18.1133 16.2849 18.0655 16.1293 18.0425 15.971C18.0383 15.9373 18.0311 15.9051 18.0335 15.8714C18.0353 15.8261 18.0383 15.7714 18.1144 15.7714C18.1732 15.7704 18.2001 15.8162 18.2037 15.8597C18.2091 15.9182 18.2295 15.9752 18.2373 16.0346C18.2499 16.1346 18.2787 16.2318 18.332 16.3239C18.3554 16.3618 18.3812 16.4151 18.4579 16.367C18.4753 16.3557 18.4933 16.3492 18.5155 16.3557Z" fill="#BF9200"/>
<path fill-rule="evenodd" clip-rule="evenodd" d="M17.4255 15.9205C17.4339 15.9311 17.4433 15.9415 17.4537 15.9518C17.5143 15.9995 17.4747 16.05 17.4561 16.0963C17.413 16.2043 17.3254 16.295 17.2547 16.3941C17.3506 16.3758 17.3884 16.3169 17.4172 16.2552C17.4717 16.1407 17.5245 16.0252 17.5449 15.9009C17.5479 15.892 17.5449 15.8789 17.5503 15.87C17.5802 15.8219 17.5652 15.7372 17.6606 15.7442C17.7685 15.7522 17.7205 15.8303 17.7169 15.8798C17.6997 16.0765 17.6257 16.2677 17.5005 16.439C17.4831 16.4614 17.4651 16.4815 17.4627 16.5091C17.4309 16.532 17.4309 16.5605 17.4393 16.5909C17.3872 16.6414 17.3314 16.6587 17.2877 16.59C17.2589 16.5441 17.2241 16.5568 17.1809 16.5656C17.0964 16.5829 17.0215 16.5741 16.9645 16.517C16.9243 16.4787 16.8668 16.4735 16.8086 16.4675C16.6575 16.4503 16.512 16.4108 16.38 16.3511C16.3176 16.3268 16.2487 16.3006 16.2433 16.2337C16.2529 16.2164 16.2661 16.2061 16.2918 16.2188C16.5101 16.3081 16.7325 16.3843 16.9861 16.4001C17.0706 16.4039 17.124 16.3866 17.1713 16.3282C17.2745 16.1987 17.3536 16.0612 17.4255 15.9205Z" fill="#BF9200"/>
<path fill-rule="evenodd" clip-rule="evenodd" d="M16.2919 16.2164C16.2799 16.2226 16.2675 16.2297 16.2547 16.2375C16.1935 16.2749 16.1384 16.2473 16.082 16.2276C15.9567 16.1831 15.8235 16.1535 15.6869 16.1397C15.5245 16.1224 15.404 16.1823 15.3386 16.3015C15.3146 16.3492 15.2846 16.3978 15.2517 16.4417C15.1857 16.4291 15.2427 16.374 15.2013 16.3534C15.2625 16.1196 15.4387 16.0215 15.7385 16.0537C15.9383 16.0749 16.1228 16.1291 16.2919 16.2164ZM19.4088 16.2398C19.3978 16.2316 19.3855 16.2245 19.3723 16.2188C19.5585 16.1228 19.7614 16.0665 19.9808 16.05C20.238 16.0299 20.4065 16.1397 20.4622 16.3557L20.434 16.4277C20.3615 16.4072 20.3501 16.3497 20.3255 16.3038C20.2566 16.1823 20.1325 16.1224 19.9628 16.143C19.8309 16.1582 19.7024 16.1876 19.5809 16.2304C19.5251 16.2496 19.4694 16.2767 19.4088 16.2398ZM18.5155 16.3557L18.4873 16.3828C18.4172 16.3819 18.389 16.344 18.3698 16.301C18.306 16.182 18.2714 16.0546 18.2679 15.9256C18.2805 15.8817 18.2973 15.8373 18.3537 15.812C18.389 15.9962 18.419 16.1814 18.5155 16.3557Z" fill="#BF9200"/>
<path fill-rule="evenodd" clip-rule="evenodd" d="M18.3554 15.8144C18.3428 15.8518 18.3602 15.8962 18.3248 15.9317C18.2391 15.8536 18.2187 15.4773 18.2979 15.3955C18.3059 15.3783 18.3145 15.3612 18.3236 15.3441C18.3824 15.4997 18.3578 15.6563 18.3554 15.8162M16.3674 19.4796C16.377 19.4945 16.3852 19.5099 16.392 19.5258C16.4729 19.6114 16.4207 19.6745 16.3368 19.7325C16.2888 19.7362 16.305 19.6988 16.287 19.6839C16.3092 19.6147 16.3242 19.5427 16.3674 19.4796ZM19.2709 19.5263C19.2785 19.5107 19.2867 19.4953 19.2955 19.48C19.3387 19.5431 19.3542 19.6151 19.3758 19.6848C19.359 19.6993 19.3758 19.7367 19.3261 19.7334C19.2421 19.6754 19.19 19.6119 19.2709 19.5263Z" fill="#BF9200"/>
<path fill-rule="evenodd" clip-rule="evenodd" d="M16.2876 19.6848C16.2984 19.7002 16.3068 19.7166 16.3176 19.7339C16.3734 19.8021 16.368 19.8573 16.2577 19.8872C16.2481 19.8723 16.2415 19.8573 16.2319 19.8419L16.2876 19.6848ZM19.3477 19.7343C19.3561 19.7169 19.3654 19.7005 19.3758 19.6853C19.3938 19.7376 19.4126 19.7901 19.4322 19.8428C19.422 19.8578 19.4154 19.8727 19.4058 19.8882C19.2955 19.8573 19.2901 19.8026 19.3477 19.7343ZM16.7103 17.6329C16.6749 17.5843 16.6683 17.5306 16.6546 17.4777C16.6108 17.4216 16.6504 17.3674 16.6588 17.3118C16.6863 17.4096 16.7131 17.508 16.7391 17.6068C16.7301 17.6156 16.7301 17.632 16.7103 17.6329ZM16.5928 18.8321L16.627 18.7652C16.651 18.7746 16.6372 18.7979 16.651 18.8101C16.6342 18.8793 16.6174 18.9518 16.573 19.0153C16.564 18.991 16.5574 18.9658 16.5472 18.9396C16.57 18.9059 16.5394 18.8578 16.5928 18.8321ZM17.0574 16.9312C16.9991 16.9378 16.9415 16.9452 16.8848 16.9537L16.7936 16.9326C16.856 16.913 16.9225 16.9125 16.9897 16.9102C17.0179 16.9055 17.0514 16.8873 17.0574 16.9312ZM16.0232 20.1345C16.1342 20.1528 16.2481 20.1621 16.353 20.1934C16.5257 20.2425 16.6114 20.178 16.6725 20.0672C16.7085 20.0635 16.7403 20.0658 16.7691 20.0845C16.808 20.1083 16.8656 20.1144 16.8788 20.1626C16.8938 20.2243 16.9531 20.2378 17.0239 20.2313C17.1654 20.2463 17.3057 20.2617 17.4501 20.2495C17.4646 20.2519 17.4774 20.2584 17.4861 20.2678V20.3061C17.3253 20.3224 17.1626 20.3227 17.0017 20.307C16.8518 20.2921 16.7517 20.3262 16.6905 20.4548C16.6444 20.2542 16.4537 20.2402 16.2637 20.2154C16.1605 20.2037 16.0568 20.1925 15.9621 20.1537L16.0232 20.1345ZM18.9909 20.0686C18.9807 20.1149 19.0599 20.1158 19.0641 20.1542L19.0365 20.1785C19.0065 20.1986 18.9436 20.1967 18.946 20.2407C18.9514 20.2752 19.0071 20.2682 19.0347 20.2865L19.0629 20.3103C19.0341 20.3543 19.0035 20.3977 18.9652 20.4571C18.9136 20.3323 18.8111 20.2883 18.6648 20.3084C18.5593 20.272 18.4502 20.2991 18.3428 20.2911C18.2865 20.2874 18.2283 20.2977 18.178 20.2701C18.2709 20.1972 18.3914 20.2346 18.4981 20.2327C18.627 20.2285 18.7517 20.2509 18.8111 20.1275C18.8219 20.106 18.868 20.1027 18.8944 20.0873C18.9208 20.0672 18.955 20.0639 18.9909 20.0686ZM19.0149 18.8101L18.9771 18.711C18.9526 18.696 18.925 18.6862 18.91 18.6638C18.8133 18.4896 18.7495 18.3053 18.7205 18.1168C18.7175 18.0948 18.7235 18.0738 18.7158 18.0509C18.7943 17.8821 18.9046 17.7208 18.9322 17.539L18.9759 17.5609C19.0239 17.6582 19.0017 17.7615 19.0071 17.8625C19.0215 18.1603 19.0239 18.4595 19.0761 18.754C19.0695 18.783 19.0635 18.811 19.0149 18.8101ZM18.7805 16.9541C18.6696 16.9551 18.5677 16.9289 18.4627 16.9097C18.4669 16.8653 18.5029 16.8835 18.5311 16.8873C18.6438 16.9022 18.7589 16.9177 18.8698 16.9308C18.8405 16.9395 18.8107 16.9473 18.7805 16.9541Z" fill="#BF9200"/>
<path fill-rule="evenodd" clip-rule="evenodd" d="M19.0389 18.7657L19.0731 18.8326C19.1264 18.8583 19.0958 18.9064 19.118 18.941C19.1092 18.9663 19.101 18.9915 19.0935 19.0167C19.0485 18.9518 19.0341 18.8812 19.0143 18.8106L19.0389 18.7657ZM18.3494 18.8344C18.2673 18.9602 18.1732 19.0831 18.2343 19.2337C18.2493 19.2533 18.2331 19.2748 18.2385 19.2949C18.2859 19.4356 18.3368 19.5773 18.3464 19.725C18.3343 19.7651 18.3359 19.8071 18.3512 19.8466C18.4238 19.8877 18.4472 19.9373 18.3764 19.9943L18.3512 20.0191C18.3033 20.0233 18.2619 20.0448 18.2127 20.0406C18.1168 20.0312 18.0311 20.0032 18.0227 19.92C18.0101 19.8045 17.9885 19.6885 17.9747 19.5731C17.9759 19.5025 17.9573 19.4338 17.9549 19.3636C17.9441 19.3384 17.9495 19.3099 17.937 19.287C17.9408 19.2943 17.9434 19.302 17.9447 19.3099C17.9447 19.3389 17.9573 19.3646 17.9603 19.3945C17.9771 19.4927 17.9573 19.596 18.0005 19.6928C17.9993 19.7666 18.0209 19.8395 18.0167 19.9148C18.0149 20.0139 17.928 20.0897 17.8248 20.0855C17.7277 20.0826 17.6474 20.0088 17.6462 19.9148C17.6444 19.8344 17.66 19.7526 17.6684 19.6726C17.7013 19.5815 17.6911 19.4875 17.7037 19.3945C17.7085 19.3449 17.7367 19.2972 17.7301 19.2472C17.7343 19.2935 17.7169 19.3365 17.7043 19.3805C17.7109 19.4445 17.6851 19.5076 17.6887 19.5712C17.6696 19.6834 17.6546 19.7962 17.6438 19.9097C17.636 19.991 17.5455 20.0424 17.4363 20.041C17.3926 20.0401 17.3554 20.0219 17.3128 20.0195L17.2871 19.9948C17.2181 19.9377 17.2391 19.8886 17.3116 19.847C17.323 19.8087 17.3332 19.7676 17.3452 19.7292C17.3344 19.6292 17.329 19.5301 17.38 19.4342C17.3928 19.4062 17.3798 19.3925 17.341 19.3931L17.3164 19.3688C17.3648 19.3096 17.4136 19.251 17.4627 19.193C17.4865 19.15 17.4997 19.1038 17.5017 19.057C17.5035 18.9775 17.5149 18.8985 17.5545 18.8227C17.5706 18.7952 17.5989 18.7732 17.6342 18.7606C17.832 18.8728 17.832 18.8728 18.0305 18.7582C18.0634 18.7715 18.0902 18.7924 18.1072 18.8181C18.1358 18.8744 18.1534 18.9339 18.1594 18.9943C18.1603 18.9097 18.194 18.8272 18.2559 18.7578C18.263 18.7511 18.2716 18.7456 18.2814 18.7416C18.2912 18.7376 18.3019 18.7352 18.3129 18.7344C18.3648 18.7406 18.392 18.7641 18.3944 18.805C18.3878 18.8232 18.377 18.8377 18.3494 18.8344Z" fill="#BF9200"/>
<path fill-rule="evenodd" clip-rule="evenodd" d="M18.3435 19.4183L18.2026 19.2776C18.2126 19.2623 18.223 19.2477 18.2338 19.2337C18.2907 19.2823 18.3333 19.336 18.3711 19.394L18.3435 19.4183ZM17.6007 16.4389C17.7164 16.3389 17.7164 16.2085 17.7422 16.086C17.7679 15.9696 17.7775 15.8522 17.7937 15.7298C17.8543 15.7461 17.8381 15.7742 17.8363 15.7957C17.8195 15.985 17.7961 16.1743 17.726 16.3571C17.7158 16.3857 17.7008 16.4132 17.7158 16.4436L17.6876 16.4665H17.6324C17.6007 16.4735 17.5929 16.4623 17.6007 16.4389ZM17.9442 16.2117C17.9034 16.0603 17.925 15.9088 17.916 15.7442C17.9946 15.7774 17.9676 15.8139 17.9688 15.8434C17.9196 15.9644 17.9604 16.0897 17.9442 16.2117Z" fill="#BF9200"/>
<path fill-rule="evenodd" clip-rule="evenodd" d="M17.6006 16.4389L17.6336 16.4665C17.5736 16.5133 17.5071 16.5497 17.4291 16.5745C17.3919 16.5544 17.3943 16.5334 17.4291 16.5133C17.5011 16.5095 17.5448 16.4656 17.6006 16.4389ZM17.0574 16.9312C17.035 16.9247 17.0124 16.9177 16.9897 16.9102C17.1615 16.8722 17.3338 16.8348 17.5065 16.798C17.5358 16.7886 17.5448 16.7971 17.5448 16.8195C17.3886 16.8716 17.225 16.9091 17.0574 16.9312ZM18.2223 16.8499C18.1094 16.8312 18.0039 16.7916 17.9147 16.7344C17.9177 16.7204 17.9327 16.7194 17.9459 16.7152L18.2607 16.8251C18.2637 16.848 18.2559 16.8602 18.2223 16.8499Z" fill="#BF9200"/>
<path fill-rule="evenodd" clip-rule="evenodd" d="M17.5449 16.819L17.5065 16.7975L17.7757 16.6909C17.7822 16.6926 17.7881 16.6954 17.793 16.699C17.798 16.7027 17.8019 16.7071 17.8045 16.712C17.7302 16.7681 17.6372 16.7947 17.5449 16.819ZM18.2224 16.8499L18.2608 16.8256C18.3501 16.8461 18.4418 16.8676 18.5305 16.8873C18.5084 16.8957 18.485 16.9018 18.4622 16.9097C18.3807 16.8957 18.2961 16.8835 18.2224 16.8499Z" fill="#BF9200"/>
<path fill-rule="evenodd" clip-rule="evenodd" d="M17.8039 16.712C17.7931 16.705 17.7859 16.6979 17.7751 16.6909C17.8537 16.6058 17.8914 16.6881 17.9454 16.7152L17.9142 16.7344C17.8788 16.7265 17.8519 16.6886 17.8039 16.712ZM18.2044 18.5352C18.232 18.4646 18.238 18.394 18.238 18.3202C18.2356 17.8985 18.238 17.4782 18.2356 17.0565C18.2356 17.0149 18.2613 16.9677 18.2044 16.9317C18.1964 16.9292 18.1938 16.9259 18.1966 16.9219C18.199 16.9178 18.2016 16.9158 18.2044 16.9158C18.4322 16.9513 18.654 17.0112 18.8909 17.0112C18.9532 17.0121 18.9562 17.0434 18.9544 17.0794C18.9244 17.6343 18.6918 18.1248 18.2044 18.5352ZM17.4562 16.9312C17.3884 16.941 17.3992 16.9841 17.3992 17.0182C17.3992 17.4735 17.4022 17.9298 17.3968 18.3851C17.3968 18.4314 17.4382 18.4674 17.4322 18.5123C17.0491 18.1888 16.8381 17.8017 16.7445 17.3739C16.7229 17.2758 16.7199 17.1748 16.7098 17.0743C16.7032 17.0285 16.7247 17.0084 16.7871 17.0084C17.0077 17.0046 17.2182 16.9527 17.4292 16.9111C17.4592 16.8999 17.4622 16.913 17.4562 16.9312ZM16.6528 18.8101C16.6458 18.7948 16.6378 18.7799 16.6288 18.7652C16.7247 18.3912 16.7145 18.0116 16.7127 17.6325L16.7415 17.6068L16.9496 18.0481C16.9652 18.0715 16.9484 18.0925 16.9526 18.1149C16.9178 18.3038 16.8566 18.4875 16.7583 18.6638C16.7451 18.6862 16.7163 18.696 16.693 18.7101L16.6528 18.8101ZM18.3495 18.8344L18.3759 18.8101C18.4922 18.7807 18.4544 18.7068 18.4544 18.6451C18.452 18.581 18.3902 18.5834 18.3327 18.5801C18.3224 18.5781 18.3133 18.5736 18.3067 18.5672C18.3 18.5608 18.2963 18.5528 18.2961 18.5446C18.4466 18.388 18.5887 18.2239 18.7116 18.0509L18.7482 18.0944C18.7075 18.2121 18.6806 18.3324 18.6678 18.4539C18.6528 18.6147 18.747 18.6783 18.9424 18.6493C18.9532 18.6686 18.9636 18.6892 18.9736 18.711C18.8675 18.8475 18.8675 18.8475 18.7098 18.7278C18.6762 18.7026 18.6402 18.6778 18.5875 18.6395L18.5227 19.0205L18.3495 18.8344Z" fill="#BF9200"/>
<path fill-rule="evenodd" clip-rule="evenodd" d="M16.6899 18.7096L16.7199 18.6493C16.853 18.6923 16.9327 18.6367 17.0011 18.5591C17.0328 18.5277 17.0472 18.4852 17.0964 18.466C17.133 18.4609 17.1725 18.4623 17.2013 18.4366C17.2093 18.4323 17.2187 18.4298 17.2284 18.4293C17.2381 18.4288 17.2478 18.4303 17.2565 18.4338C17.2858 18.4623 17.3272 18.4833 17.3368 18.5235C17.3363 18.5336 17.3317 18.5433 17.3236 18.5511C17.2816 18.575 17.2163 18.5759 17.1965 18.6231C17.1629 18.6507 17.1617 18.7031 17.0928 18.6998C17.0772 18.6848 17.1006 18.6222 17.0346 18.6689C16.9833 18.7018 16.9356 18.7379 16.8919 18.7769C16.8182 18.8442 16.7618 18.8569 16.7259 18.7545C16.7193 18.7381 16.7031 18.7246 16.6899 18.7096Z" fill="#BF9200"/>
<path fill-rule="evenodd" clip-rule="evenodd" d="M17.1084 18.4772C17.0924 18.514 17.0772 18.5513 17.0628 18.589C17.0179 18.5754 17.0029 18.5441 16.9999 18.5095C16.9826 18.3706 16.954 18.2327 16.9141 18.0967C16.9243 18.0799 16.9363 18.0649 16.9465 18.0476C17.0125 18.1378 17.0802 18.2257 17.1462 18.316C17.1533 18.3239 17.157 18.3334 17.1569 18.3431C17.1414 18.3753 17.1432 18.409 17.1444 18.4431C17.1396 18.459 17.1306 18.4712 17.1084 18.4772ZM17.3164 18.5305C17.3224 18.5263 17.329 18.5249 17.3356 18.5221C17.4357 18.6016 17.5353 18.6792 17.633 18.7591C17.6356 18.7857 17.6269 18.8121 17.6084 18.8344C17.5353 18.8115 17.4891 18.7433 17.3944 18.7591C17.3757 18.754 17.3603 18.7434 17.3512 18.7297C17.3692 18.66 17.2619 18.6035 17.3164 18.5305ZM18.2955 18.5446C18.3031 18.5481 18.3097 18.5529 18.3146 18.5586C18.3518 18.6217 18.3314 18.6834 18.3122 18.7456L18.2847 18.7704C18.1917 18.7517 18.1252 18.8012 18.0538 18.8354C18.0305 18.8115 18.0293 18.7844 18.0275 18.7577C18.1162 18.6872 18.2079 18.6161 18.2955 18.5446ZM17.4591 18.5446C17.5838 18.5689 17.6498 18.6409 17.7043 18.7241C17.6048 18.6801 17.5323 18.6124 17.4591 18.5446ZM17.9124 16.8218C17.826 16.7723 17.7649 16.8564 17.6857 16.8461C17.7577 16.8153 17.811 16.6863 17.9124 16.8218ZM17.7319 18.7222C17.8068 18.7849 17.8794 18.7484 17.9513 18.7171C17.9309 18.7662 17.8878 18.8054 17.826 18.8054C17.7805 18.804 17.7343 18.7699 17.7319 18.7222Z" fill="#BF9200"/>
<path fill-rule="evenodd" clip-rule="evenodd" d="M17.1384 18.3529C17.14 18.3404 17.1422 18.3283 17.145 18.3164C17.1816 18.3557 17.2163 18.3945 17.2547 18.4338L17.2259 18.459C17.1534 18.4628 17.1426 18.4174 17.1228 18.3809C17.1238 18.3705 17.1293 18.3606 17.1384 18.3529ZM18.0317 18.6568C18.0653 18.6138 18.0851 18.5563 18.1744 18.5684C18.1342 18.6063 18.0994 18.6484 18.0317 18.6568ZM18.2044 16.9139V16.9303C18.1534 16.9186 18.0916 16.9205 18.0653 16.87C18.1165 16.8726 18.1652 16.8881 18.2044 16.9139ZM17.4561 16.9312L17.4292 16.9121C17.4711 16.8835 17.5191 16.87 17.5725 16.8938C17.5419 16.9219 17.4969 16.9242 17.4561 16.9312ZM17.3722 18.7199L17.3992 18.7447C17.4783 18.8106 17.4843 18.8961 17.5029 18.9775C17.5131 19.0116 17.5089 19.0476 17.5419 19.0775C17.5407 19.1271 17.4969 19.1575 17.4615 19.193C17.4286 19.0691 17.404 18.9438 17.3135 18.8344C17.2865 18.8405 17.2745 18.8265 17.2661 18.8078C17.2661 18.7521 17.2901 18.7152 17.3722 18.7199Z" fill="#BF9200"/>
<path fill-rule="evenodd" clip-rule="evenodd" d="M17.2853 18.8078L17.3141 18.8344C17.2679 18.8877 17.2181 18.9854 17.157 18.9756C17.0707 18.9592 17.127 18.8587 17.1036 18.7984C17.0916 18.7666 17.0958 18.732 17.0916 18.6998L17.1396 18.5894C17.2097 18.6133 17.2031 18.6642 17.2031 18.7115C17.2031 18.7587 17.2199 18.7937 17.2853 18.8078ZM18.883 20.7367C18.8417 20.7432 18.7919 20.7582 18.7847 20.7054C18.7805 20.6567 18.8207 20.6291 18.8663 20.6072C18.9496 20.5679 18.9388 20.6549 18.9958 20.6754C19.0047 20.5974 19.1163 20.56 19.0833 20.4749C19.0809 20.4697 19.1049 20.4538 19.1211 20.4482C19.1253 20.4464 19.1486 20.4576 19.1498 20.4637C19.1564 20.5478 19.2853 20.5394 19.3171 20.603C19.3243 20.6193 19.3573 20.6254 19.3633 20.6142C19.4226 20.5268 19.5113 20.5632 19.6037 20.5843C19.5881 20.523 19.5737 20.4739 19.5611 20.4253C19.5485 20.3767 19.5275 20.3351 19.4472 20.3603C19.413 20.3711 19.3878 20.3594 19.3842 20.3356C19.3753 20.3047 19.4166 20.3061 19.4412 20.3005C19.5575 20.2771 19.6067 20.3248 19.6295 20.4066C19.6462 20.481 19.6277 20.5871 19.8021 20.5352C19.8111 20.5319 19.8369 20.5483 19.8441 20.5595C19.8561 20.5796 19.8255 20.5889 19.8141 20.588C19.6594 20.5805 19.5611 20.725 19.3938 20.681C19.3651 20.675 19.3525 20.6895 19.3429 20.7096C19.3015 20.7881 19.2524 20.7984 19.163 20.739C19.0815 20.6857 19.0053 20.7166 18.9502 20.7783C18.8956 20.7923 18.9166 20.7385 18.883 20.7367ZM17.1384 20.854C17.2535 20.8227 17.3279 20.7848 17.2637 20.6951C17.2433 20.6661 17.2565 20.6394 17.2931 20.631C17.3267 20.6212 17.3332 20.6502 17.3452 20.6703C17.3572 20.6904 17.3656 20.7161 17.4022 20.7077C17.44 20.7007 17.4268 20.6726 17.425 20.6521C17.422 20.6268 17.4076 20.5964 17.4478 20.5824C17.4945 20.5674 17.4945 20.609 17.5173 20.6231C17.5862 20.6595 17.666 20.6366 17.7397 20.6422C17.8057 20.6507 17.8848 20.6366 17.8602 20.7245C17.9226 20.718 17.9184 20.6768 17.952 20.6623C17.9903 20.6464 18.0395 20.6212 18.0683 20.6464C18.0947 20.6708 18.0923 20.7161 18.0923 20.753C18.0935 20.7942 18.0485 20.7942 18.0101 20.7956C17.9412 20.7965 17.8716 20.7858 17.8255 20.8503C17.8033 20.8802 17.7541 20.8783 17.7127 20.8517C17.5671 20.7624 17.4454 20.7591 17.3057 20.84C17.2655 20.8643 17.2217 20.8699 17.1384 20.854ZM16.9597 20.7722C16.9861 20.6586 17.0119 20.5716 17.0047 20.4814C17.0023 20.4501 17.0161 20.4263 17.0515 20.4263C17.1114 20.4263 17.0832 20.4637 17.079 20.4838C17.0643 20.5754 17.0469 20.6672 17.0269 20.7591C17.0191 20.7904 16.9891 20.8115 16.9507 20.8208C16.913 20.8292 16.8884 20.8124 16.8656 20.7909C16.7757 20.6955 16.639 20.6689 16.5095 20.7287C16.4663 20.7488 16.4256 20.7643 16.3614 20.747C16.4489 20.7096 16.5125 20.667 16.4717 20.5843C16.4639 20.5688 16.4807 20.5436 16.5059 20.5403C16.5365 20.5352 16.5413 20.5595 16.5443 20.5777C16.5509 20.6109 16.5569 20.6446 16.6102 20.6525C16.636 20.6563 16.6588 20.6563 16.6762 20.6418C16.6905 20.6277 16.6696 20.617 16.6588 20.6053C16.579 20.5085 16.7439 20.5366 16.7685 20.4847C16.7883 20.4464 16.8524 20.4838 16.8536 20.5169C16.856 20.5595 17.0179 20.603 16.8584 20.646C16.886 20.682 16.9148 20.7161 16.9597 20.7722ZM15.9213 20.3108C15.9867 20.2776 16.0598 20.2692 16.106 20.2883C16.1432 20.3047 16.0976 20.3543 16.0862 20.3898C16.0838 20.3968 16.0796 20.4038 16.079 20.4118C16.07 20.4576 15.9975 20.523 16.0664 20.5478C16.169 20.5815 16.115 20.4814 16.154 20.4557C16.1708 20.4464 16.1935 20.4431 16.2253 20.4328C16.2223 20.4576 16.2235 20.4716 16.2211 20.4856C16.2103 20.5249 16.1588 20.5745 16.2523 20.5908C16.3398 20.6072 16.3242 20.5632 16.3242 20.5198C16.3248 20.487 16.3758 20.4833 16.413 20.4819C16.416 20.487 16.4208 20.4908 16.4196 20.494C16.3584 20.6913 16.398 20.6722 16.1486 20.6254C16.0796 20.6137 16.0119 20.5969 15.9435 20.5805C15.9082 20.574 15.8578 20.5777 15.8536 20.5385C15.8512 20.4973 15.8866 20.4711 15.9357 20.4552C15.9627 20.45 15.9877 20.4399 16.0089 20.4258C16.0682 20.3725 16.0371 20.3257 15.9213 20.3108ZM18.2559 20.7974C18.1408 20.7741 18.187 20.7096 18.2271 20.682C18.3057 20.632 18.3069 20.5777 18.2751 20.5151C18.2577 20.48 18.2769 20.4618 18.3105 20.4576C18.3519 20.4538 18.3447 20.4861 18.3483 20.5062C18.3578 20.5623 18.3638 20.6165 18.3734 20.6717C18.3764 20.7016 18.3776 20.7376 18.4352 20.7255C18.4772 20.7166 18.4861 20.6941 18.4682 20.6651C18.4544 20.6394 18.4376 20.6119 18.4838 20.6025C18.5461 20.5908 18.5317 20.6357 18.5425 20.6605C18.5803 20.7563 18.5215 20.7881 18.407 20.7825C18.3626 20.825 18.3057 20.7909 18.2559 20.7974ZM18.5545 20.854C18.6438 20.7858 18.7068 20.7353 18.612 20.6665C18.5845 20.6488 18.6091 20.6142 18.6408 20.603C18.6744 20.5932 18.6828 20.6231 18.6984 20.6413C18.7775 20.7428 18.7463 20.8101 18.5545 20.854ZM17.1504 20.4286C17.1942 20.4468 17.2331 20.4562 17.2139 20.4945C17.1786 20.5609 17.1786 20.6315 17.1708 20.6997C17.1684 20.7236 17.1708 20.7596 17.1228 20.7521C17.0736 20.7451 17.0982 20.7119 17.1024 20.6895C17.1076 20.6449 17.1144 20.6011 17.1228 20.5581C17.1312 20.5179 17.1384 20.4781 17.1504 20.4286Z" fill="#BF9200"/>
<path fill-rule="evenodd" clip-rule="evenodd" d="M18.4034 20.8045C18.4322 20.8129 18.4616 20.8311 18.44 20.8526C18.4034 20.8849 18.3459 20.8587 18.2979 20.8643C18.2667 20.8694 18.2613 20.8381 18.2853 20.8166C18.3207 20.796 18.3627 20.8017 18.4034 20.8045ZM18.883 20.7367C18.9052 20.7507 18.925 20.7652 18.949 20.7778C18.9226 20.825 18.8765 20.8297 18.8177 20.8218C18.8309 20.7867 18.9148 20.7881 18.883 20.7367ZM18.2206 20.5081C18.214 20.5291 18.199 20.5338 18.181 20.5291C18.1702 20.5268 18.1576 20.5146 18.1576 20.5099C18.1588 20.4917 18.1762 20.4842 18.1978 20.4898C18.2074 20.4926 18.2146 20.5015 18.2206 20.5081ZM18.2284 20.5964C18.217 20.6072 18.2044 20.6198 18.1852 20.6114C18.1684 20.603 18.1546 20.5917 18.1666 20.5763C18.1762 20.5623 18.19 20.5515 18.2098 20.5623C18.226 20.5679 18.238 20.5796 18.2284 20.5964ZM19.75 20.6689C19.7416 20.6895 19.7242 20.6937 19.7044 20.6923C19.6864 20.6904 19.6642 20.6838 19.6768 20.6647C19.6834 20.6549 19.7026 20.6464 19.7182 20.6446C19.7398 20.6427 19.7482 20.6563 19.75 20.6689ZM15.9813 20.6418C15.9705 20.6586 15.9567 20.6689 15.9357 20.6609C15.9262 20.6563 15.916 20.6436 15.919 20.6352C15.9232 20.6217 15.9411 20.6133 15.9603 20.6217C15.9705 20.6245 15.9759 20.6357 15.9813 20.6418ZM16.2619 20.7035C16.2481 20.7105 16.2385 20.7203 16.2295 20.7212C16.2067 20.725 16.1935 20.7119 16.2007 20.6974C16.2043 20.6899 16.2211 20.6834 16.2319 20.6834C16.2397 20.6838 16.2481 20.6951 16.2619 20.7035ZM16.3045 20.0873C16.3454 20.0793 16.3882 20.0794 16.4291 20.0876C16.47 20.0959 16.5075 20.112 16.5383 20.1345C16.4519 20.1453 16.377 20.1219 16.3045 20.0873ZM15.9633 20.0078C16.0014 19.999 16.0419 19.9991 16.0799 20.0079C16.1179 20.0168 16.1518 20.0342 16.1774 20.0579C16.1024 20.0686 16.0389 20.0462 15.9633 20.0078ZM19.1259 20.128C19.1924 20.0873 19.2733 20.078 19.3543 20.0752L19.3645 20.1027L19.1379 20.1546L19.1259 20.128ZM19.4682 20.0639C19.5353 20.0092 19.6031 19.9971 19.7002 20.0018C19.6698 20.0248 19.6332 20.0423 19.5931 20.0531C19.553 20.0638 19.5104 20.0675 19.4682 20.0639ZM17.0005 20.2682H17.4592C17.3091 20.3005 17.1506 20.3005 17.0005 20.2682ZM17.714 19.3706L17.6906 19.3739L17.7272 19.1743C17.7469 19.2622 17.7565 19.3183 17.714 19.3706ZM17.9226 19.3024V19.2005C17.9574 19.228 17.943 19.2552 17.949 19.2804C17.9628 19.3038 17.9466 19.3061 17.9226 19.3024Z" fill="#BF9200"/>
<path fill-rule="evenodd" clip-rule="evenodd" d="M17.9226 19.3024L17.9489 19.2804C17.9594 19.2903 17.9667 19.302 17.9702 19.3145C17.9736 19.327 17.9731 19.3401 17.9687 19.3524C17.9608 19.3593 17.9521 19.3657 17.9429 19.3716C17.9196 19.3524 17.9178 19.3272 17.9226 19.3024ZM17.1324 20.1892C17.048 20.2037 16.9608 20.2052 16.8758 20.1934C16.9657 20.1387 17.0395 20.1369 17.1324 20.1892ZM17.4387 20.2005C17.3776 20.2229 17.3116 20.2196 17.2421 20.2229C17.2523 20.1794 17.2871 20.1817 17.3188 20.1817C17.3554 20.1962 17.404 20.171 17.4387 20.2005Z" fill="#BF9200"/>
<path fill-rule="evenodd" clip-rule="evenodd" d="M17.4388 20.2005C17.3974 20.1953 17.3537 20.2005 17.3189 20.1818C17.3669 20.1789 17.4136 20.1774 17.4592 20.1771C17.4718 20.1771 17.4874 20.1869 17.4652 20.1962C17.4586 20.2005 17.4478 20.1981 17.4388 20.2005ZM18.7668 20.1822C18.6916 20.2027 18.6105 20.2061 18.5329 20.192C18.6163 20.1303 18.69 20.1546 18.7668 20.1822ZM18.3495 20.1818C18.3783 20.1771 18.4022 20.1864 18.4364 20.2135C18.3666 20.2255 18.2937 20.2209 18.2272 20.2005C18.2626 20.171 18.3105 20.1962 18.3495 20.1818Z" fill="#BF9200"/>
<path fill-rule="evenodd" clip-rule="evenodd" d="M18.3495 20.1817C18.3117 20.2004 18.2685 20.1953 18.2272 20.2004C18.2152 20.1953 18.163 20.1981 18.2038 20.1817C18.2404 20.1644 18.2985 20.1794 18.3495 20.1817ZM17.1384 18.3678C17.1072 18.3861 17.1204 18.4132 17.1096 18.4356C17.0892 18.4057 17.0755 18.3744 17.0946 18.3435C17.1024 18.3286 17.1246 18.3454 17.1384 18.3529V18.3678ZM16.7781 20.5501C16.7901 20.5604 16.8027 20.5665 16.8051 20.5749C16.8177 20.5978 16.7925 20.5978 16.7757 20.596C16.7661 20.596 16.7511 20.5833 16.7523 20.5768C16.7535 20.5684 16.7661 20.5604 16.7781 20.5501Z" fill="#BF9200"/>
</svg>
