<svg width="157" height="45" viewBox="0 0 157 45" fill="none" xmlns="http://www.w3.org/2000/svg">
<rect y="0.400391" width="156.606" height="44.4172" rx="4.77201" fill="white"/>
<path d="M12.7187 8.54124L31.5817 19.9493C33.5823 21.1587 33.5823 24.0609 31.5817 25.2702L12.7187 36.6783C10.6466 37.9312 8.00098 36.4389 8.00098 34.0187V11.2009C8.00098 8.78063 10.6466 7.28836 12.7187 8.54124Z" fill="#499ED7"/>
<path d="M12.718 36.6779L31.581 25.2698C33.5816 24.0605 33.5816 21.1583 31.581 19.9489L27.7618 17.639L27.5752 17.6328L11.4355 37.0867C11.8883 37.0483 12.3265 36.9086 12.718 36.6779Z" fill="#F04C4D"/>
<path d="M8 29.7759V34.018C8 36.4398 10.6456 37.9305 12.7177 36.6777L31.5807 25.2696C32.7699 24.5514 33.2347 23.2363 33.0093 22.0332L8 29.7759Z" fill="#2B8EC6"/>
<path d="M9.6757 8.45508C9.16975 8.71281 8.74523 9.10587 8.44939 9.59053C8.15355 10.0752 7.99799 10.6324 8.00002 11.2002V15.1889L9.6757 8.45508Z" fill="#499ED7"/>
<path d="M31.5812 19.9493L12.7181 8.54123C12.3257 8.31007 11.8864 8.16984 11.4326 8.13086L27.5739 27.6936L31.5827 25.2702C33.5817 24.0593 33.5817 21.1587 31.5812 19.9493Z" fill="#92CA62"/>
<path d="M20.7855 25.8187L11.4355 37.0884C11.8692 37.0434 12.3045 36.9283 12.718 36.6796L31.581 25.2715C32.7701 24.5534 33.2349 23.2383 33.0095 22.0352L20.7855 25.8187Z" fill="#E13340"/>
<path d="M31.5816 19.9489L27.7624 17.639L27.5759 17.6328L23.4131 22.6506L27.5743 27.6932L31.5832 25.2698C33.5822 24.0589 33.5822 21.1583 31.5816 19.9489Z" fill="#FCD770"/>
<path d="M24.959 24.525L27.5735 27.693L31.5824 25.2696C32.7716 24.5514 33.2363 23.2363 33.0109 22.0332L24.959 24.525Z" fill="#FFCC5C"/>
<rect width="109.406" height="37" transform="translate(39.2002 4.10938)" fill="white"/>
<path d="M44.6488 9.78612C44.48 9.43094 44.2354 9.15728 43.9152 8.96513C43.595 8.76717 43.2223 8.66818 42.7973 8.66818C42.3722 8.66818 41.9879 8.76717 41.6444 8.96513C41.3067 9.15728 41.0388 9.43676 40.8409 9.80358C40.6487 10.1646 40.5527 10.5838 40.5527 11.0613C40.5527 11.5387 40.6487 11.9579 40.8409 12.3189C41.0388 12.6799 41.3067 12.9594 41.6444 13.1574C41.9879 13.3495 42.3722 13.4456 42.7973 13.4456C43.3912 13.4456 43.8803 13.268 44.2645 12.9128C44.6488 12.5577 44.873 12.0773 44.9371 11.4717H42.509V10.8254H45.7842V11.4368C45.7377 11.9376 45.5804 12.3975 45.3126 12.8168C45.0448 13.2302 44.6925 13.5591 44.2558 13.8037C43.8191 14.0424 43.3329 14.1618 42.7973 14.1618C42.2325 14.1618 41.7172 14.0308 41.2514 13.7688C40.7856 13.5009 40.4158 13.1312 40.1422 12.6596C39.8743 12.1879 39.7404 11.6552 39.7404 11.0613C39.7404 10.4674 39.8743 9.93459 40.1422 9.46296C40.4158 8.98551 40.7856 8.61578 41.2514 8.35376C41.7172 8.08592 42.2325 7.95201 42.7973 7.95201C43.4436 7.95201 44.0142 8.11213 44.5091 8.43237C45.0098 8.75261 45.3737 9.20386 45.6008 9.78612H44.6488ZM51.202 11.5329C51.202 11.6843 51.1933 11.8444 51.1758 12.0132H47.3504C47.3795 12.4849 47.5396 12.8546 47.8308 13.1224C48.1277 13.3845 48.4858 13.5155 48.905 13.5155C49.2486 13.5155 49.5339 13.4369 49.7609 13.2797C49.9938 13.1166 50.1569 12.9012 50.25 12.6334H51.106C50.9779 13.0933 50.7217 13.4689 50.3374 13.76C49.9531 14.0453 49.4756 14.188 48.905 14.188C48.4509 14.188 48.0433 14.0861 47.6823 13.8823C47.3271 13.6785 47.0476 13.3903 46.8438 13.0176C46.64 12.6392 46.5381 12.2025 46.5381 11.7076C46.5381 11.2126 46.6371 10.7789 46.8351 10.4062C47.0331 10.0336 47.3096 9.74827 47.6648 9.5503C48.0258 9.34651 48.4392 9.24462 48.905 9.24462C49.3592 9.24462 49.7609 9.3436 50.1103 9.54157C50.4596 9.73954 50.7275 10.0132 50.9138 10.3626C51.106 10.7061 51.202 11.0962 51.202 11.5329ZM50.381 11.3669C50.381 11.0642 50.3141 10.8051 50.1802 10.5896C50.0462 10.3684 49.8628 10.2024 49.6299 10.0918C49.4029 9.97535 49.1496 9.91712 48.8701 9.91712C48.4683 9.91712 48.1248 10.0452 47.8395 10.3014C47.56 10.5576 47.3999 10.9128 47.3591 11.3669H50.381ZM53.2206 9.97826V12.7993C53.2206 13.0322 53.2701 13.1981 53.369 13.2971C53.468 13.3903 53.6398 13.4369 53.8843 13.4369H54.4695V14.1094H53.7533C53.3108 14.1094 52.9789 14.0075 52.7577 13.8037C52.5364 13.5999 52.4258 13.2651 52.4258 12.7993V9.97826H51.8057V9.32322H52.4258V8.11795H53.2206V9.32322H54.4695V9.97826H53.2206ZM58.5557 8.02188V14.1094H57.7609V8.02188H58.5557ZM60.8798 9.97826V12.7993C60.8798 13.0322 60.9292 13.1981 61.0282 13.2971C61.1272 13.3903 61.299 13.4369 61.5435 13.4369H62.1287V14.1094H61.4125C60.97 14.1094 60.6381 14.0075 60.4169 13.8037C60.1956 13.5999 60.085 13.2651 60.085 12.7993V9.97826H59.4649V9.32322H60.085V8.11795H60.8798V9.32322H62.1287V9.97826H60.8798ZM68.18 14.1705C67.6152 14.1705 67.0999 14.0395 66.6341 13.7775C66.1683 13.5097 65.7986 13.1399 65.5249 12.6683C65.2571 12.1908 65.1232 11.6552 65.1232 11.0613C65.1232 10.4674 65.2571 9.93459 65.5249 9.46296C65.7986 8.98551 66.1683 8.61578 66.6341 8.35376C67.0999 8.08592 67.6152 7.95201 68.18 7.95201C68.7506 7.95201 69.2689 8.08592 69.7347 8.35376C70.2005 8.61578 70.5673 8.9826 70.8351 9.45423C71.103 9.92586 71.2369 10.4615 71.2369 11.0613C71.2369 11.661 71.103 12.1967 70.8351 12.6683C70.5673 13.1399 70.2005 13.5097 69.7347 13.7775C69.2689 14.0395 68.7506 14.1705 68.18 14.1705ZM68.18 13.4805C68.6051 13.4805 68.9865 13.3816 69.3242 13.1836C69.6677 12.9856 69.9355 12.7032 70.1277 12.3364C70.3256 11.9696 70.4246 11.5445 70.4246 11.0613C70.4246 10.5722 70.3256 10.1471 70.1277 9.78612C69.9355 9.41929 69.6706 9.1369 69.3329 8.93893C68.9952 8.74096 68.6109 8.64198 68.18 8.64198C67.7492 8.64198 67.3649 8.74096 67.0272 8.93893C66.6895 9.1369 66.4216 9.41929 66.2236 9.78612C66.0315 10.1471 65.9354 10.5722 65.9354 11.0613C65.9354 11.5445 66.0315 11.9696 66.2236 12.3364C66.4216 12.7032 66.6895 12.9856 67.0272 13.1836C67.3707 13.3816 67.755 13.4805 68.18 13.4805ZM74.618 9.23588C75.2003 9.23588 75.6719 9.41347 76.0329 9.76865C76.3939 10.118 76.5744 10.6246 76.5744 11.2883V14.1094H75.7884V11.4019C75.7884 10.9244 75.669 10.5605 75.4303 10.3101C75.1916 10.054 74.8655 9.92586 74.4521 9.92586C74.0329 9.92586 73.6981 10.0569 73.4477 10.3189C73.2032 10.5809 73.0809 10.9623 73.0809 11.463V14.1094H72.2861V9.32322H73.0809V10.0045C73.2381 9.75991 73.4506 9.57068 73.7185 9.43676C73.9921 9.30284 74.292 9.23588 74.618 9.23588Z" fill="black"/>
<path d="M50.2331 28.6608C49.8895 27.9991 49.4123 27.5028 48.8015 27.1719C48.1907 26.8283 47.4844 26.6566 46.6827 26.6566C45.8047 26.6566 45.022 26.8538 44.3349 27.2483C43.6477 27.6428 43.1069 28.2027 42.7124 28.928C42.3306 29.6534 42.1398 30.4932 42.1398 31.4477C42.1398 32.4021 42.3306 33.2483 42.7124 33.9864C43.1069 34.7117 43.6477 35.2716 44.3349 35.6661C45.022 36.0606 45.8047 36.2578 46.6827 36.2578C47.8662 36.2578 48.8269 35.927 49.565 35.2653C50.3031 34.6035 50.7548 33.7064 50.9202 32.5738H45.9383V30.8368H53.249V32.5357C53.109 33.5664 52.74 34.5145 52.1419 35.3798C51.5565 36.2451 50.7866 36.9386 49.8322 37.4604C48.8906 37.9694 47.8407 38.2239 46.6827 38.2239C45.4356 38.2239 44.2967 37.9376 43.2659 37.3649C42.2352 36.7796 41.4144 35.9715 40.8036 34.9408C40.2055 33.91 39.9065 32.7456 39.9065 31.4477C39.9065 30.1497 40.2055 28.9853 40.8036 27.9545C41.4144 26.9238 42.2352 26.1221 43.2659 25.5494C44.3094 24.9641 45.4483 24.6714 46.6827 24.6714C48.0952 24.6714 49.3487 25.0213 50.443 25.7212C51.5502 26.4084 52.3519 27.3883 52.8481 28.6608H50.2331ZM58.6211 38.2812C57.6285 38.2812 56.7314 38.0585 55.9297 37.6131C55.128 37.155 54.4981 36.5187 54.0399 35.7043C53.5818 34.8771 53.3528 33.9227 53.3528 32.8411C53.3528 31.7721 53.5882 30.8241 54.059 29.997C54.5299 29.1698 55.1725 28.5335 55.9869 28.0882C56.8013 27.6428 57.7112 27.4201 58.7165 27.4201C59.7218 27.4201 60.6317 27.6428 61.4461 28.0882C62.2605 28.5335 62.9032 29.1698 63.374 29.997C63.8448 30.8241 64.0803 31.7721 64.0803 32.8411C64.0803 33.91 63.8385 34.858 63.3549 35.6852C62.8713 36.5123 62.2096 37.155 61.3698 37.6131C60.5426 38.0585 59.6264 38.2812 58.6211 38.2812ZM58.6211 36.3915C59.181 36.3915 59.7027 36.2578 60.1863 35.9906C60.6826 35.7234 61.0834 35.3225 61.3888 34.7881C61.6942 34.2536 61.847 33.6046 61.847 32.8411C61.847 32.0776 61.7006 31.4349 61.4079 30.9132C61.1152 30.3787 60.7271 29.9779 60.2436 29.7106C59.76 29.4434 59.2383 29.3098 58.6783 29.3098C58.1184 29.3098 57.5967 29.4434 57.1131 29.7106C56.6423 29.9779 56.2669 30.3787 55.9869 30.9132C55.707 31.4349 55.567 32.0776 55.567 32.8411C55.567 33.9736 55.8533 34.8517 56.426 35.4752C57.0113 36.086 57.743 36.3915 58.6211 36.3915ZM69.4573 38.2812C68.4647 38.2812 67.5675 38.0585 66.7658 37.6131C65.9641 37.155 65.3342 36.5187 64.8761 35.7043C64.418 34.8771 64.189 33.9227 64.189 32.8411C64.189 31.7721 64.4244 30.8241 64.8952 29.997C65.3661 29.1698 66.0087 28.5335 66.8231 28.0882C67.6375 27.6428 68.5474 27.4201 69.5527 27.4201C70.558 27.4201 71.4679 27.6428 72.2823 28.0882C73.0967 28.5335 73.7393 29.1698 74.2102 29.997C74.681 30.8241 74.9164 31.7721 74.9164 32.8411C74.9164 33.91 74.6747 34.858 74.1911 35.6852C73.7075 36.5123 73.0458 37.155 72.2059 37.6131C71.3788 38.0585 70.4626 38.2812 69.4573 38.2812ZM69.4573 36.3915C70.0172 36.3915 70.5389 36.2578 71.0225 35.9906C71.5188 35.7234 71.9196 35.3225 72.225 34.7881C72.5304 34.2536 72.6831 33.6046 72.6831 32.8411C72.6831 32.0776 72.5368 31.4349 72.2441 30.9132C71.9514 30.3787 71.5633 29.9779 71.0797 29.7106C70.5962 29.4434 70.0744 29.3098 69.5145 29.3098C68.9546 29.3098 68.4329 29.4434 67.9493 29.7106C67.4785 29.9779 67.1031 30.3787 66.8231 30.9132C66.5432 31.4349 66.4032 32.0776 66.4032 32.8411C66.4032 33.9736 66.6895 34.8517 67.2621 35.4752C67.8475 36.086 68.5792 36.3915 69.4573 36.3915ZM79.969 27.4201C80.7834 27.4201 81.5024 27.5855 82.1259 27.9164C82.7622 28.2345 83.2585 28.6353 83.6148 29.1189V27.5919H85.8099V38.2812C85.8099 39.2483 85.6063 40.1073 85.1991 40.8581C84.7919 41.6216 84.2001 42.2197 83.4239 42.6523C82.6604 43.085 81.7441 43.3013 80.6752 43.3013C79.25 43.3013 78.0665 42.9641 77.1248 42.2897C76.1832 41.6279 75.6487 40.7244 75.5214 39.5792H77.6784C77.8438 40.1263 78.1938 40.5654 78.7282 40.8962C79.2754 41.2398 79.9244 41.4116 80.6752 41.4116C81.5533 41.4116 82.2595 41.1444 82.794 40.6099C83.3412 40.0754 83.6148 39.2992 83.6148 38.2812V36.5251C83.2457 37.0214 82.7431 37.4413 82.1068 37.7849C81.4833 38.1157 80.7706 38.2812 79.969 38.2812C79.0527 38.2812 78.2129 38.0521 77.4493 37.594C76.6985 37.1232 76.1004 36.4742 75.6551 35.647C75.2224 34.8071 75.0061 33.8591 75.0061 32.8029C75.0061 31.7467 75.2224 30.8114 75.6551 29.997C76.1004 29.1825 76.6985 28.5526 77.4493 28.1072C78.2129 27.6491 79.0527 27.4201 79.969 27.4201ZM83.6148 32.8411C83.6148 32.1157 83.4621 31.4858 83.1567 30.9514C82.864 30.4169 82.4758 30.0097 81.9923 29.7297C81.5087 29.4498 80.987 29.3098 80.4271 29.3098C79.8671 29.3098 79.3454 29.4498 78.8618 29.7297C78.3783 29.997 77.9838 30.3978 77.6784 30.9323C77.3857 31.454 77.2394 32.0776 77.2394 32.8029C77.2394 33.5282 77.3857 34.1645 77.6784 34.7117C77.9838 35.2589 78.3783 35.6788 78.8618 35.9715C79.3581 36.2515 79.8799 36.3915 80.4271 36.3915C80.987 36.3915 81.5087 36.2515 81.9923 35.9715C82.4758 35.6916 82.864 35.2843 83.1567 34.7499C83.4621 34.2027 83.6148 33.5664 83.6148 32.8411ZM89.5079 23.9842V38.1094H87.3319V23.9842H89.5079ZM100.668 32.5929C100.668 32.9874 100.643 33.3437 100.592 33.6619H92.5557C92.6193 34.5017 92.9311 35.1762 93.491 35.6852C94.0509 36.1942 94.7381 36.4487 95.5525 36.4487C96.7233 36.4487 97.5504 35.9588 98.034 34.9789H100.382C100.064 35.9461 99.4847 36.7414 98.6448 37.3649C97.8177 37.9758 96.7869 38.2812 95.5525 38.2812C94.5472 38.2812 93.6437 38.0585 92.842 37.6131C92.0531 37.155 91.4295 36.5187 90.9714 35.7043C90.526 34.8771 90.3033 33.9227 90.3033 32.8411C90.3033 31.7594 90.5197 30.8114 90.9523 29.997C91.3977 29.1698 92.0149 28.5335 92.8039 28.0882C93.6056 27.6428 94.5218 27.4201 95.5525 27.4201C96.5451 27.4201 97.4295 27.6364 98.2058 28.0691C98.982 28.5017 99.5865 29.1125 100.019 29.9015C100.452 30.6778 100.668 31.5749 100.668 32.5929ZM98.3967 31.9058C98.3839 31.1041 98.0976 30.4614 97.5377 29.9779C96.9778 29.4943 96.2842 29.2525 95.4571 29.2525C94.7063 29.2525 94.0637 29.4943 93.5292 29.9779C92.9947 30.4487 92.6766 31.0913 92.5748 31.9058H98.3967ZM114.372 28.7944C114.372 29.4689 114.213 30.1051 113.895 30.7032C113.577 31.3013 113.068 31.7912 112.368 32.173C111.668 32.542 110.771 32.7265 109.677 32.7265H107.272V38.1094H105.096V24.8432H109.677C110.695 24.8432 111.554 25.0213 112.254 25.3777C112.966 25.7212 113.494 26.1921 113.838 26.7902C114.194 27.3883 114.372 28.0563 114.372 28.7944ZM109.677 30.9514C110.504 30.9514 111.121 30.7668 111.528 30.3978C111.936 30.016 112.139 29.4816 112.139 28.7944C112.139 27.3437 111.318 26.6184 109.677 26.6184H107.272V30.9514H109.677ZM117.288 23.9842V38.1094H115.112V23.9842H117.288ZM118.083 32.8029C118.083 31.7467 118.299 30.8114 118.732 29.997C119.178 29.1825 119.776 28.5526 120.526 28.1072C121.29 27.6491 122.13 27.4201 123.046 27.4201C123.873 27.4201 124.592 27.5855 125.203 27.9164C125.827 28.2345 126.323 28.6353 126.692 29.1189V27.5919H128.887V38.1094H126.692V36.5442C126.323 37.0404 125.82 37.454 125.184 37.7849C124.548 38.1157 123.822 38.2812 123.008 38.2812C122.104 38.2812 121.277 38.0521 120.526 37.594C119.776 37.1232 119.178 36.4742 118.732 35.647C118.299 34.8071 118.083 33.8591 118.083 32.8029ZM126.692 32.8411C126.692 32.1157 126.539 31.4858 126.234 30.9514C125.941 30.4169 125.553 30.0097 125.069 29.7297C124.586 29.4498 124.064 29.3098 123.504 29.3098C122.944 29.3098 122.422 29.4498 121.939 29.7297C121.455 29.997 121.061 30.3978 120.755 30.9323C120.463 31.454 120.316 32.0776 120.316 32.8029C120.316 33.5282 120.463 34.1645 120.755 34.7117C121.061 35.2589 121.455 35.6788 121.939 35.9715C122.435 36.2515 122.957 36.3915 123.504 36.3915C124.064 36.3915 124.586 36.2515 125.069 35.9715C125.553 35.6916 125.941 35.2843 126.234 34.7499C126.539 34.2027 126.692 33.5664 126.692 32.8411ZM139.877 27.5919L133.425 43.0532H131.172L133.31 37.9376L129.168 27.5919H131.592L134.551 35.6088L137.624 27.5919H139.877Z" fill="black"/>
</svg>
