<svg width="36" height="36" viewBox="0 0 36 36" fill="none" xmlns="http://www.w3.org/2000/svg">
<circle cx="18.5" cy="18.5" r="17.5" fill="#D8FFD4"/>
<path d="M6 14.7625H30V21.3075H6V14.7625Z" fill="#EC1C24"/>
<path d="M6 13.36H30V14.7625H6V13.36ZM6 21.3075H30V22.71H6V21.3075Z" fill="#E6E7E8"/>
<path d="M26.25 7.75H9.75C7.26488 7.75 6 10.0524 6 12.8925V13.36H30V12.8925C30 10.0524 28.7351 7.75 26.25 7.75Z" fill="#25333A"/>
<path d="M6 23.1775C6 26.0176 7.26488 28.32 9.75 28.32H26.25C28.7351 28.32 30 26.0176 30 23.1775V22.71H6V23.1775Z" fill="#137A08"/>
<path d="M14.5635 25.4154L20.4548 13.0931C20.4974 12.5268 20.6499 11.9819 20.8992 11.5054C21.2067 10.9178 21.642 10.4802 22.1513 10.1992C22.1483 10.8944 21.9994 11.5653 21.6908 12.1534C21.4616 12.5888 21.157 12.9547 20.7994 13.224L14.8647 25.6384L14.5635 25.4154Z" fill="white"/>
<path d="M22.1513 25.4154L16.2604 13.0931C16.2178 12.5268 16.0653 11.9819 15.816 11.5054C15.5078 10.9178 15.0732 10.4802 14.5635 10.1992C14.5669 10.8944 14.7135 11.5653 15.0237 12.1534C15.2534 12.5884 15.5581 12.9541 15.9154 13.224L21.849 25.6389L22.1513 25.4154Z" fill="white"/>
<path d="M18.3574 11.482C16.8424 12.5723 15.7871 15.043 15.7871 17.9181C15.7871 20.7932 16.8442 23.2626 18.3574 24.3561C19.8686 23.2621 20.9276 20.7932 20.9276 17.9181C20.9276 15.0435 19.8705 12.5723 18.3574 11.482Z" fill="#D9271E"/>
<path d="M16.2611 21.1275C16.5656 20.1654 16.7362 19.0738 16.7362 17.9181C16.7362 16.7615 16.5656 15.6713 16.2611 14.7097C15.9592 15.6718 15.7867 16.762 15.7867 17.9181C15.7871 19.0743 15.9596 20.1659 16.2611 21.1275ZM20.4536 21.1275C20.7555 20.1654 20.9276 19.0738 20.9276 17.9181C20.9276 16.7615 20.7555 15.6713 20.4536 14.7097C20.1491 15.6718 19.9785 16.762 19.9785 17.9181C19.9785 19.0743 20.1491 20.1659 20.4536 21.1275Z" fill="#25333A"/>
<path d="M18.3574 18.9831C18.7554 18.9831 19.0781 18.5063 19.0781 17.9181C19.0781 17.33 18.7554 16.8531 18.3574 16.8531C17.9593 16.8531 17.6366 17.33 17.6366 17.9181C17.6366 18.5063 17.9593 18.9831 18.3574 18.9831Z" fill="white"/>
<path d="M18.1834 19.3632C17.8594 19.9574 17.6539 20.8012 17.6539 21.7395C17.6539 22.6791 17.8594 23.5216 18.1834 24.1153V19.3632ZM18.5062 24.1172C18.8302 23.523 19.0346 22.6791 19.0346 21.7413C19.0346 20.8017 18.8302 19.9588 18.5062 19.365V24.1172ZM18.1957 11.7541C17.8702 12.3479 17.6674 13.1922 17.6674 14.1276C17.6674 15.0673 17.8702 15.9121 18.1957 16.5063V11.7541ZM18.519 16.5063C18.8445 15.9107 19.0474 15.0659 19.0474 14.1276C19.0474 13.1926 18.8445 12.3474 18.519 11.7541V16.5063Z" fill="white"/>
</svg>
