<svg width="157" height="45" viewBox="0 0 157 45" fill="none" xmlns="http://www.w3.org/2000/svg">
<rect y="0.477539" width="156.606" height="44.4172" rx="4.77201" fill="white"/>
<path d="M12.7177 8.61742L31.5807 20.0255C33.5813 21.2349 33.5813 24.137 31.5807 25.3464L12.7177 36.7545C10.6456 38.0074 8 36.5151 8 34.0948V11.2771C8 8.8568 10.6456 7.36453 12.7177 8.61742Z" fill="#499ED7"/>
<path d="M12.718 36.7531L31.581 25.345C33.5816 24.1357 33.5816 21.2335 31.581 20.0241L27.7618 17.7142L27.5752 17.708L11.4355 37.1619C11.8883 37.1235 12.3265 36.9838 12.718 36.7531Z" fill="#F04C4D"/>
<path d="M8 29.8516V34.0937C8 36.5155 10.6456 38.0062 12.7177 36.7533L31.5807 25.3452C32.7699 24.6271 33.2347 23.312 33.0093 22.1089L8 29.8516Z" fill="#2B8EC6"/>
<path d="M9.6757 8.53174C9.16975 8.78947 8.74523 9.18253 8.44939 9.66719C8.15355 10.1518 7.99799 10.7091 8.00002 11.2769V15.2656L9.6757 8.53174Z" fill="#499ED7"/>
<path d="M31.5822 20.025L12.7191 8.61692C12.3267 8.38576 11.8874 8.24552 11.4336 8.20654L27.5748 27.7693L31.5837 25.3459C33.5827 24.135 33.5827 21.2344 31.5822 20.025Z" fill="#92CA62"/>
<path d="M20.7855 25.8939L11.4355 37.1636C11.8692 37.1185 12.3045 37.0035 12.718 36.7548L31.581 25.3467C32.7701 24.6286 33.2349 23.3135 33.0095 22.1104L20.7855 25.8939Z" fill="#E13340"/>
<path d="M31.5807 20.0251L27.7614 17.7152L27.5749 17.709L23.4121 22.7267L27.5733 27.7694L31.5822 25.346C33.5812 24.1351 33.5812 21.2345 31.5807 20.0251Z" fill="#FCD770"/>
<path d="M24.959 24.6007L27.5735 27.7686L31.5824 25.3452C32.7716 24.6271 33.2363 23.312 33.0109 22.1089L24.959 24.6007Z" fill="#FFCC5C"/>
<rect width="109.407" height="37" transform="translate(39.1992 4.18604)" fill="white"/>
<path d="M44.6479 9.86278C44.479 9.5076 44.2345 9.23394 43.9142 9.04179C43.594 8.84383 43.2213 8.74484 42.7963 8.74484C42.3712 8.74484 41.9869 8.84383 41.6434 9.04179C41.3057 9.23394 41.0379 9.51342 40.8399 9.88024C40.6478 10.2412 40.5517 10.6605 40.5517 11.1379C40.5517 11.6154 40.6478 12.0346 40.8399 12.3956C41.0379 12.7566 41.3057 13.0361 41.6434 13.234C41.9869 13.4262 42.3712 13.5223 42.7963 13.5223C43.3902 13.5223 43.8793 13.3447 44.2636 12.9895C44.6479 12.6343 44.872 12.154 44.9361 11.5484H42.5081V10.9021H45.7833V11.5135C45.7367 12.0142 45.5795 12.4742 45.3116 12.8934C45.0438 13.3068 44.6915 13.6358 44.2548 13.8804C43.8181 14.1191 43.332 14.2384 42.7963 14.2384C42.2315 14.2384 41.7162 14.1074 41.2504 13.8454C40.7846 13.5776 40.4149 13.2078 40.1412 12.7362C39.8734 12.2646 39.7394 11.7318 39.7394 11.1379C39.7394 10.544 39.8734 10.0113 40.1412 9.53962C40.4149 9.06217 40.7846 8.69244 41.2504 8.43042C41.7162 8.16258 42.2315 8.02867 42.7963 8.02867C43.4426 8.02867 44.0132 8.18879 44.5081 8.50903C45.0089 8.82927 45.3728 9.28052 45.5999 9.86278H44.6479ZM51.2011 11.6095C51.2011 11.7609 51.1923 11.9211 51.1748 12.0899H47.3494C47.3785 12.5615 47.5387 12.9313 47.8298 13.1991C48.1267 13.4611 48.4848 13.5921 48.904 13.5921C49.2476 13.5921 49.5329 13.5135 49.76 13.3563C49.9929 13.1933 50.1559 12.9779 50.2491 12.71H51.105C50.9769 13.17 50.7207 13.5456 50.3364 13.8367C49.9521 14.122 49.4747 14.2646 48.904 14.2646C48.4499 14.2646 48.0423 14.1627 47.6813 13.959C47.3261 13.7552 47.0466 13.4669 46.8429 13.0943C46.6391 12.7158 46.5372 12.2791 46.5372 11.7842C46.5372 11.2893 46.6362 10.8555 46.8341 10.4829C47.0321 10.1102 47.3087 9.82493 47.6638 9.62696C48.0248 9.42317 48.4382 9.32128 48.904 9.32128C49.3582 9.32128 49.76 9.42026 50.1093 9.61823C50.4587 9.8162 50.7265 10.0899 50.9128 10.4392C51.105 10.7827 51.2011 11.1729 51.2011 11.6095ZM50.3801 11.4436C50.3801 11.1408 50.3131 10.8817 50.1792 10.6663C50.0453 10.445 49.8619 10.2791 49.629 10.1685C49.4019 10.052 49.1486 9.99378 48.8691 9.99378C48.4674 9.99378 48.1238 10.1219 47.8385 10.3781C47.559 10.6343 47.3989 10.9894 47.3582 11.4436H50.3801ZM53.2196 10.0549V12.876C53.2196 13.1089 53.2691 13.2748 53.3681 13.3738C53.4671 13.4669 53.6388 13.5135 53.8834 13.5135H54.4685V14.186H53.7524C53.3098 14.186 52.978 14.0841 52.7567 13.8804C52.5354 13.6766 52.4248 13.3418 52.4248 12.876V10.0549H51.8047V9.39988H52.4248V8.19461H53.2196V9.39988H54.4685V10.0549H53.2196ZM58.5548 8.09854V14.186H57.76V8.09854H58.5548ZM60.8788 10.0549V12.876C60.8788 13.1089 60.9283 13.2748 61.0273 13.3738C61.1262 13.4669 61.298 13.5135 61.5426 13.5135H62.1277V14.186H61.4115C60.969 14.186 60.6371 14.0841 60.4159 13.8804C60.1946 13.6766 60.084 13.3418 60.084 12.876V10.0549H59.4639V9.39988H60.084V8.19461H60.8788V9.39988H62.1277V10.0549H60.8788ZM68.1791 14.2472C67.6143 14.2472 67.099 14.1162 66.6332 13.8541C66.1674 13.5863 65.7976 13.2166 65.524 12.7449C65.2561 12.2675 65.1222 11.7318 65.1222 11.1379C65.1222 10.544 65.2561 10.0113 65.524 9.53962C65.7976 9.06217 66.1674 8.69244 66.6332 8.43042C67.099 8.16258 67.6143 8.02867 68.1791 8.02867C68.7497 8.02867 69.2679 8.16258 69.7337 8.43042C70.1995 8.69244 70.5663 9.05926 70.8341 9.53089C71.102 10.0025 71.2359 10.5382 71.2359 11.1379C71.2359 11.7376 71.102 12.2733 70.8341 12.7449C70.5663 13.2166 70.1995 13.5863 69.7337 13.8541C69.2679 14.1162 68.7497 14.2472 68.1791 14.2472ZM68.1791 13.5572C68.6041 13.5572 68.9855 13.4582 69.3232 13.2602C69.6667 13.0623 69.9346 12.7799 70.1267 12.4131C70.3247 12.0462 70.4237 11.6212 70.4237 11.1379C70.4237 10.6488 70.3247 10.2238 70.1267 9.86278C69.9346 9.49595 69.6696 9.21356 69.3319 9.01559C68.9942 8.81762 68.6099 8.71864 68.1791 8.71864C67.7482 8.71864 67.3639 8.81762 67.0262 9.01559C66.6885 9.21356 66.4206 9.49595 66.2227 9.86278C66.0305 10.2238 65.9345 10.6488 65.9345 11.1379C65.9345 11.6212 66.0305 12.0462 66.2227 12.4131C66.4206 12.7799 66.6885 13.0623 67.0262 13.2602C67.3697 13.4582 67.754 13.5572 68.1791 13.5572ZM74.6171 9.31254C75.1993 9.31254 75.671 9.49013 76.032 9.84531C76.393 10.1947 76.5735 10.7012 76.5735 11.365V14.186H75.7874V11.4785C75.7874 11.0011 75.668 10.6372 75.4293 10.3868C75.1906 10.1306 74.8645 10.0025 74.4511 10.0025C74.0319 10.0025 73.6971 10.1335 73.4467 10.3955C73.2022 10.6576 73.0799 11.0389 73.0799 11.5397V14.186H72.2851V9.39988H73.0799V10.0811C73.2371 9.83657 73.4496 9.64734 73.7175 9.51342C73.9911 9.3795 74.291 9.31254 74.6171 9.31254Z" fill="black"/>
<path d="M50.2321 28.7375C49.8885 28.0757 49.4113 27.5795 48.8005 27.2486C48.1897 26.905 47.4834 26.7332 46.6817 26.7332C45.8037 26.7332 45.0211 26.9305 44.3339 27.3249C43.6467 27.7194 43.1059 28.2793 42.7114 29.0047C42.3297 29.73 42.1388 30.5699 42.1388 31.5243C42.1388 32.4787 42.3297 33.3249 42.7114 34.063C43.1059 34.7884 43.6467 35.3483 44.3339 35.7428C45.0211 36.1373 45.8037 36.3345 46.6817 36.3345C47.8652 36.3345 48.8259 36.0036 49.564 35.3419C50.3021 34.6802 50.7538 33.7831 50.9193 32.6505H45.9373V30.9135H53.248V32.6123C53.108 33.6431 52.739 34.5911 52.1409 35.4564C51.5555 36.3218 50.7857 37.0153 49.8313 37.537C48.8896 38.0461 47.8397 38.3006 46.6817 38.3006C45.4346 38.3006 44.2957 38.0142 43.265 37.4416C42.2342 36.8562 41.4134 36.0482 40.8026 35.0174C40.2045 33.9867 39.9055 32.8223 39.9055 31.5243C39.9055 30.2263 40.2045 29.062 40.8026 28.0312C41.4134 27.0004 42.2342 26.1988 43.265 25.6261C44.3084 25.0407 45.4474 24.7481 46.6817 24.7481C48.0942 24.7481 49.3477 25.098 50.4421 25.7979C51.5492 26.4851 52.3509 27.4649 52.8472 28.7375H50.2321ZM58.6201 38.3578C57.6275 38.3578 56.7304 38.1351 55.9287 37.6897C55.127 37.2316 54.4971 36.5954 54.039 35.7809C53.5809 34.9538 53.3518 33.9994 53.3518 32.9177C53.3518 31.8488 53.5872 30.9008 54.0581 30.0736C54.5289 29.2465 55.1715 28.6102 55.9859 28.1648C56.8004 27.7194 57.7102 27.4967 58.7155 27.4967C59.7208 27.4967 60.6307 27.7194 61.4451 28.1648C62.2595 28.6102 62.9022 29.2465 63.373 30.0736C63.8439 30.9008 64.0793 31.8488 64.0793 32.9177C64.0793 33.9867 63.8375 34.9347 63.3539 35.7619C62.8704 36.589 62.2086 37.2316 61.3688 37.6897C60.5416 38.1351 59.6254 38.3578 58.6201 38.3578ZM58.6201 36.4681C59.18 36.4681 59.7018 36.3345 60.1853 36.0673C60.6816 35.8 61.0825 35.3992 61.3879 34.8647C61.6933 34.3303 61.846 33.6813 61.846 32.9177C61.846 32.1542 61.6996 31.5116 61.407 30.9898C61.1143 30.4554 60.7261 30.0545 60.2426 29.7873C59.759 29.5201 59.2373 29.3865 58.6774 29.3865C58.1174 29.3865 57.5957 29.5201 57.1121 29.7873C56.6413 30.0545 56.2659 30.4554 55.9859 30.9898C55.706 31.5116 55.566 32.1542 55.566 32.9177C55.566 34.0503 55.8523 34.9283 56.425 35.5519C57.0103 36.1627 57.742 36.4681 58.6201 36.4681ZM69.4563 38.3578C68.4637 38.3578 67.5666 38.1351 66.7649 37.6897C65.9632 37.2316 65.3333 36.5954 64.8752 35.7809C64.417 34.9538 64.188 33.9994 64.188 32.9177C64.188 31.8488 64.4234 30.9008 64.8942 30.0736C65.3651 29.2465 66.0077 28.6102 66.8221 28.1648C67.6366 27.7194 68.5464 27.4967 69.5517 27.4967C70.557 27.4967 71.4669 27.7194 72.2813 28.1648C73.0957 28.6102 73.7384 29.2465 74.2092 30.0736C74.68 30.9008 74.9155 31.8488 74.9155 32.9177C74.9155 33.9867 74.6737 34.9347 74.1901 35.7619C73.7066 36.589 73.0448 37.2316 72.205 37.6897C71.3778 38.1351 70.4616 38.3578 69.4563 38.3578ZM69.4563 36.4681C70.0162 36.4681 70.5379 36.3345 71.0215 36.0673C71.5178 35.8 71.9186 35.3992 72.224 34.8647C72.5295 34.3303 72.6822 33.6813 72.6822 32.9177C72.6822 32.1542 72.5358 31.5116 72.2431 30.9898C71.9505 30.4554 71.5623 30.0545 71.0788 29.7873C70.5952 29.5201 70.0735 29.3865 69.5135 29.3865C68.9536 29.3865 68.4319 29.5201 67.9483 29.7873C67.4775 30.0545 67.1021 30.4554 66.8221 30.9898C66.5422 31.5116 66.4022 32.1542 66.4022 32.9177C66.4022 34.0503 66.6885 34.9283 67.2612 35.5519C67.8465 36.1627 68.5782 36.4681 69.4563 36.4681ZM79.968 27.4967C80.7824 27.4967 81.5014 27.6622 82.1249 27.993C82.7612 28.3112 83.2575 28.712 83.6138 29.1956V27.6685H85.8089V38.3578C85.8089 39.325 85.6053 40.1839 85.1981 40.9347C84.7909 41.6982 84.1992 42.2963 83.4229 42.729C82.6594 43.1616 81.7432 43.378 80.6742 43.378C79.249 43.378 78.0655 43.0408 77.1239 42.3663C76.1822 41.7046 75.6477 40.8011 75.5205 39.6558H77.6774C77.8428 40.203 78.1928 40.642 78.7273 40.9729C79.2744 41.3165 79.9234 41.4883 80.6742 41.4883C81.5523 41.4883 82.2585 41.221 82.793 40.6866C83.3402 40.1521 83.6138 39.3759 83.6138 38.3578V36.6017C83.2448 37.098 82.7421 37.518 82.1058 37.8615C81.4823 38.1924 80.7697 38.3578 79.968 38.3578C79.0517 38.3578 78.2119 38.1288 77.4484 37.6707C76.6976 37.1998 76.0995 36.5508 75.6541 35.7237C75.2214 34.8838 75.0051 33.9358 75.0051 32.8796C75.0051 31.8234 75.2214 30.888 75.6541 30.0736C76.0995 29.2592 76.6976 28.6293 77.4484 28.1839C78.2119 27.7258 79.0517 27.4967 79.968 27.4967ZM83.6138 32.9177C83.6138 32.1924 83.4611 31.5625 83.1557 31.028C82.863 30.4936 82.4749 30.0863 81.9913 29.8064C81.5077 29.5264 80.986 29.3865 80.4261 29.3865C79.8662 29.3865 79.3444 29.5264 78.8609 29.8064C78.3773 30.0736 77.9828 30.4745 77.6774 31.0089C77.3847 31.5307 77.2384 32.1542 77.2384 32.8796C77.2384 33.6049 77.3847 34.2412 77.6774 34.7884C77.9828 35.3356 78.3773 35.7555 78.8609 36.0482C79.3572 36.3281 79.8789 36.4681 80.4261 36.4681C80.986 36.4681 81.5077 36.3281 81.9913 36.0482C82.4749 35.7682 82.863 35.361 83.1557 34.8265C83.4611 34.2794 83.6138 33.6431 83.6138 32.9177ZM89.5069 24.0609V38.186H87.3309V24.0609H89.5069ZM100.667 32.6696C100.667 33.0641 100.642 33.4204 100.591 33.7385H92.5547C92.6184 34.5784 92.9301 35.2528 93.4901 35.7619C94.05 36.2709 94.7371 36.5254 95.5516 36.5254C96.7223 36.5254 97.5494 36.0355 98.033 35.0556H100.381C100.063 36.0227 99.4837 36.8181 98.6438 37.4416C97.8167 38.0524 96.7859 38.3578 95.5516 38.3578C94.5463 38.3578 93.6428 38.1351 92.8411 37.6897C92.0521 37.2316 91.4285 36.5954 90.9704 35.7809C90.525 34.9538 90.3024 33.9994 90.3024 32.9177C90.3024 31.8361 90.5187 30.888 90.9513 30.0736C91.3967 29.2465 92.0139 28.6102 92.8029 28.1648C93.6046 27.7194 94.5208 27.4967 95.5516 27.4967C96.5441 27.4967 97.4286 27.7131 98.2048 28.1457C98.981 28.5784 99.5855 29.1892 100.018 29.9782C100.451 30.7544 100.667 31.6516 100.667 32.6696ZM98.3957 31.9824C98.383 31.1807 98.0966 30.5381 97.5367 30.0545C96.9768 29.571 96.2833 29.3292 95.4561 29.3292C94.7053 29.3292 94.0627 29.571 93.5282 30.0545C92.9938 30.5254 92.6756 31.168 92.5738 31.9824H98.3957ZM114.371 28.8711C114.371 29.5455 114.212 30.1818 113.894 30.7799C113.576 31.378 113.067 31.8679 112.367 32.2497C111.667 32.6187 110.77 32.8032 109.676 32.8032H107.271V38.186H105.095V24.9199H109.676C110.694 24.9199 111.553 25.098 112.253 25.4543C112.965 25.7979 113.493 26.2687 113.837 26.8668C114.193 27.4649 114.371 28.133 114.371 28.8711ZM109.676 31.028C110.503 31.028 111.12 30.8435 111.527 30.4745C111.935 30.0927 112.138 29.5582 112.138 28.8711C112.138 27.4204 111.317 26.695 109.676 26.695H107.271V31.028H109.676ZM117.287 24.0609V38.186H115.111V24.0609H117.287ZM118.082 32.8796C118.082 31.8234 118.298 30.888 118.731 30.0736C119.177 29.2592 119.775 28.6293 120.525 28.1839C121.289 27.7258 122.129 27.4967 123.045 27.4967C123.872 27.4967 124.591 27.6622 125.202 27.993C125.826 28.3112 126.322 28.712 126.691 29.1956V27.6685H128.886V38.186H126.691V36.6208C126.322 37.1171 125.819 37.5307 125.183 37.8615C124.547 38.1924 123.821 38.3578 123.007 38.3578C122.103 38.3578 121.276 38.1288 120.525 37.6707C119.775 37.1998 119.177 36.5508 118.731 35.7237C118.298 34.8838 118.082 33.9358 118.082 32.8796ZM126.691 32.9177C126.691 32.1924 126.538 31.5625 126.233 31.028C125.94 30.4936 125.552 30.0863 125.068 29.8064C124.585 29.5264 124.063 29.3865 123.503 29.3865C122.943 29.3865 122.421 29.5264 121.938 29.8064C121.454 30.0736 121.06 30.4745 120.754 31.0089C120.462 31.5307 120.315 32.1542 120.315 32.8796C120.315 33.6049 120.462 34.2412 120.754 34.7884C121.06 35.3356 121.454 35.7555 121.938 36.0482C122.434 36.3281 122.956 36.4681 123.503 36.4681C124.063 36.4681 124.585 36.3281 125.068 36.0482C125.552 35.7682 125.94 35.361 126.233 34.8265C126.538 34.2794 126.691 33.6431 126.691 32.9177ZM139.876 27.6685L133.424 43.1298H131.171L133.309 38.0142L129.167 27.6685H131.591L134.55 35.6855L137.623 27.6685H139.876Z" fill="black"/>
</svg>
